<svg xmlns="http://www.w3.org/2000/svg" xmlns:xlink="http://www.w3.org/1999/xlink" width="500" zoomAndPan="magnify" viewBox="0 0 375 374.999991" height="500" preserveAspectRatio="xMidYMid meet" version="1.0"><defs><g/><clipPath id="d80989a951"><path d="M 37.195312 147.085938 L 118.195312 147.085938 L 118.195312 227.335938 L 37.195312 227.335938 Z M 37.195312 147.085938 " clip-rule="nonzero"/></clipPath></defs><rect x="-37.5" width="450" fill="#ffffff" y="-37.499999" height="449.999989" fill-opacity="1"/><rect x="-37.5" width="450" fill="#000000" y="-37.499999" height="449.999989" fill-opacity="1"/><g clip-path="url(#d80989a951)"><path fill="#ffffff" d="M 53.464844 206.425781 C 53.933594 206.613281 54.371094 206.828125 54.839844 207.015625 C 59.464844 209.003906 62.777344 211.863281 65.898438 216.554688 C 66.304688 217.144531 66.710938 217.828125 67.148438 218.511719 C 69.585938 222.425781 72.648438 227.335938 77.679688 227.210938 C 83.617188 227.117188 87.179688 221.089844 90.644531 215.28125 C 92.769531 211.707031 94.769531 208.351562 97.207031 206.394531 C 99.113281 204.871094 101.675781 203.503906 104.363281 202.042969 C 110.832031 198.566406 118.140625 194.617188 118.140625 187.285156 C 118.140625 180.636719 110.832031 176.226562 104.394531 172.34375 C 101.207031 170.417969 98.175781 168.613281 96.207031 166.65625 C 94.269531 164.730469 92.675781 161.933594 90.957031 158.953125 C 87.648438 153.113281 84.210938 147.085938 77.742188 147.085938 C 77.742188 147.085938 77.710938 147.085938 77.710938 147.085938 C 56.589844 147.175781 37.3125 166.347656 37.28125 187.285156 C 37.25 199.464844 44.058594 202.386719 53.464844 206.425781 Z M 77.710938 147.363281 C 77.710938 147.363281 77.742188 147.363281 77.742188 147.363281 C 84.023438 147.363281 87.429688 153.328125 90.707031 159.078125 C 92.394531 162.058594 94.019531 164.917969 95.988281 166.84375 C 97.988281 168.800781 101.019531 170.632812 104.238281 172.558594 C 110.613281 176.445312 117.828125 180.792969 117.828125 187.285156 C 117.828125 194.433594 110.613281 198.316406 104.238281 201.765625 C 101.519531 203.226562 98.957031 204.59375 97.050781 206.144531 C 94.550781 208.132812 92.550781 211.519531 90.394531 215.125 C 86.992188 220.871094 83.429688 226.804688 77.710938 226.929688 C 77.648438 226.929688 77.617188 226.929688 77.554688 226.929688 C 72.804688 226.929688 69.835938 222.175781 67.460938 218.355469 C 67.023438 217.671875 66.617188 216.988281 66.210938 216.398438 C 63.027344 211.644531 59.683594 208.753906 54.996094 206.734375 C 54.527344 206.550781 54.058594 206.332031 53.621094 206.144531 C 44.308594 202.167969 37.5625 199.28125 37.59375 187.285156 C 37.625 166.472656 56.746094 147.457031 77.710938 147.363281 Z M 77.710938 147.363281 " fill-opacity="1" fill-rule="nonzero"/></g><path fill="#ffffff" d="M 41.152344 187.503906 C 41.558594 196.667969 48.746094 200.367188 56.371094 204.28125 L 57.308594 204.777344 C 60.027344 206.175781 62.777344 208.722656 65.433594 211.210938 C 69.429688 214.9375 73.585938 218.789062 77.929688 218.976562 C 82.804688 219.195312 87.367188 214.410156 91.425781 210.183594 C 93.363281 208.164062 95.207031 206.238281 96.957031 204.964844 C 98.613281 203.753906 100.519531 202.664062 102.519531 201.546875 C 108.394531 198.222656 114.488281 194.773438 114.703125 187.535156 C 114.921875 181.167969 108.457031 176.910156 102.738281 173.152344 C 100.175781 171.472656 97.769531 169.859375 96.082031 168.179688 C 94.394531 166.472656 92.863281 164.203125 91.269531 161.8125 C 87.742188 156.496094 84.117188 151.03125 77.898438 150.96875 C 77.804688 150.96875 77.710938 150.96875 77.617188 150.96875 C 68.492188 150.96875 59.058594 155.285156 51.714844 162.867188 C 44.652344 170.105469 40.78125 179.117188 41.152344 187.503906 Z M 51.964844 163.054688 C 59.277344 155.535156 68.617188 151.246094 77.648438 151.246094 C 77.742188 151.246094 77.835938 151.246094 77.929688 151.246094 C 83.992188 151.308594 87.554688 156.714844 91.019531 161.933594 C 92.613281 164.359375 94.144531 166.65625 95.863281 168.367188 C 97.550781 170.042969 99.988281 171.660156 102.550781 173.367188 C 108.175781 177.097656 114.578125 181.320312 114.363281 187.503906 C 114.113281 194.589844 108.113281 197.972656 102.332031 201.269531 C 100.300781 202.417969 98.394531 203.503906 96.738281 204.714844 C 94.957031 206.019531 93.113281 207.949219 91.175781 209.96875 C 87.273438 214.035156 82.835938 218.667969 78.210938 218.667969 C 78.117188 218.667969 78.023438 218.667969 77.929688 218.667969 C 73.679688 218.480469 69.585938 214.660156 65.617188 210.960938 C 62.964844 208.476562 60.214844 205.929688 57.433594 204.5 L 56.496094 204 C 48.964844 200.117188 41.839844 196.484375 41.433594 187.503906 C 41.089844 179.179688 44.933594 170.261719 51.964844 163.054688 Z M 51.964844 163.054688 " fill-opacity="1" fill-rule="nonzero"/><path fill="#ffffff" d="M 59.058594 202.789062 L 59.683594 203.164062 C 61.308594 204.09375 62.964844 205.246094 64.746094 206.425781 C 69.367188 209.5625 74.148438 212.792969 78.460938 212.949219 C 83.367188 213.105469 88.992188 209.191406 93.957031 205.742188 C 94.925781 205.089844 95.832031 204.4375 96.675781 203.878906 C 97.738281 203.164062 98.863281 202.480469 100.050781 201.765625 C 105.457031 198.503906 111.613281 194.804688 111.582031 188.125 C 111.550781 182.253906 106.050781 177.996094 101.207031 174.238281 C 99.300781 172.746094 97.488281 171.347656 96.019531 169.917969 C 94.675781 168.550781 93.332031 166.875 91.957031 165.074219 C 88.398438 160.445312 84.335938 155.191406 78.554688 155.191406 C 78.523438 155.191406 78.460938 155.191406 78.429688 155.191406 C 69.835938 155.316406 60.277344 160.007812 53.496094 167.496094 C 47.683594 173.894531 44.714844 181.414062 45.308594 188.15625 C 46.027344 195.242188 52.933594 199.25 59.058594 202.789062 Z M 53.777344 167.683594 C 60.496094 160.289062 69.960938 155.597656 78.492188 155.503906 C 78.523438 155.503906 78.554688 155.503906 78.617188 155.503906 C 84.242188 155.503906 88.242188 160.691406 91.769531 165.257812 C 93.175781 167.0625 94.488281 168.769531 95.863281 170.136719 C 97.332031 171.597656 99.144531 172.996094 101.050781 174.488281 C 106.082031 178.371094 111.269531 182.410156 111.300781 188.125 C 111.332031 194.648438 105.269531 198.285156 99.925781 201.515625 C 98.738281 202.230469 97.582031 202.914062 96.519531 203.628906 C 95.644531 204.21875 94.738281 204.839844 93.800781 205.492188 C 89.210938 208.691406 83.523438 212.640625 78.773438 212.640625 C 78.679688 212.640625 78.585938 212.640625 78.492188 212.640625 C 74.273438 212.484375 69.523438 209.285156 64.933594 206.175781 C 63.152344 204.964844 61.464844 203.847656 59.839844 202.882812 L 59.214844 202.511719 C 53.152344 199 46.308594 195.023438 45.683594 188.09375 C 45.089844 181.445312 48.027344 174.019531 53.777344 167.683594 Z M 53.777344 167.683594 " fill-opacity="1" fill-rule="nonzero"/><path fill="#ffffff" d="M 62.183594 202.074219 C 69.398438 206.519531 75.179688 208.722656 79.335938 208.722656 C 84.648438 208.691406 98.238281 203.195312 104.957031 196.421875 C 107.519531 193.84375 108.832031 191.324219 108.800781 188.964844 C 108.738281 183.15625 103.832031 178.867188 99.488281 175.109375 C 98.238281 174.019531 97.050781 172.996094 96.019531 171.9375 C 94.988281 170.914062 94.019531 169.796875 92.957031 168.613281 C 89.242188 164.453125 85.054688 159.730469 79.335938 159.667969 C 79.273438 159.667969 79.210938 159.667969 79.117188 159.667969 C 71.679688 159.667969 63.277344 163.832031 57.183594 170.539062 C 51.871094 176.414062 49.183594 183.125 49.871094 188.964844 C 50.558594 194.960938 57.277344 199.09375 62.183594 202.074219 Z M 57.433594 170.789062 C 63.464844 164.140625 71.773438 160.007812 79.117188 160.007812 C 79.179688 160.007812 79.242188 160.007812 79.335938 160.007812 C 84.898438 160.070312 88.867188 164.542969 92.707031 168.832031 C 93.769531 170.011719 94.769531 171.132812 95.800781 172.15625 C 96.863281 173.210938 98.050781 174.238281 99.300781 175.324219 C 103.582031 179.054688 108.425781 183.308594 108.488281 188.964844 C 108.519531 191.234375 107.238281 193.65625 104.738281 196.203125 C 98.207031 202.789062 84.492188 208.382812 79.335938 208.414062 C 79.304688 208.414062 79.304688 208.414062 79.273438 208.414062 C 75.179688 208.414062 69.460938 206.175781 62.308594 201.796875 C 57.464844 198.8125 50.839844 194.742188 50.152344 188.933594 C 49.527344 183.21875 52.152344 176.566406 57.433594 170.789062 Z M 57.433594 170.789062 " fill-opacity="1" fill-rule="nonzero"/><path fill="#ffffff" d="M 65.246094 201.019531 C 70.617188 203.972656 76.835938 206.019531 80.367188 206.019531 C 85.304688 206.019531 97.050781 203.039062 102.894531 197.167969 C 105.082031 194.960938 106.175781 192.570312 106.175781 190.082031 C 106.113281 184.273438 101.519531 179.863281 97.488281 175.945312 C 96.925781 175.417969 96.394531 174.890625 95.863281 174.363281 C 95.363281 173.867188 94.894531 173.367188 94.394531 172.871094 C 90.519531 168.925781 86.148438 164.484375 80.398438 164.421875 C 80.335938 164.421875 80.304688 164.421875 80.242188 164.421875 C 73.492188 164.421875 66.242188 167.960938 60.871094 173.894531 C 56.277344 178.992188 53.996094 184.894531 54.589844 190.082031 C 54.964844 193.5625 58.871094 197.539062 65.246094 201.019531 Z M 61.089844 174.113281 C 66.335938 168.304688 73.648438 164.730469 80.210938 164.730469 C 80.242188 164.730469 80.304688 164.730469 80.335938 164.730469 C 85.960938 164.761719 90.300781 169.175781 94.113281 173.089844 C 94.613281 173.585938 95.113281 174.113281 95.582031 174.578125 C 96.113281 175.109375 96.644531 175.636719 97.207031 176.164062 C 101.207031 180.015625 105.738281 184.429688 105.800781 190.082031 C 105.832031 192.476562 104.769531 194.804688 102.613281 196.949219 C 96.894531 202.695312 85.054688 205.710938 80.304688 205.710938 C 73.242188 205.710938 55.714844 197.539062 54.839844 190.050781 C 54.277344 184.957031 56.558594 179.148438 61.089844 174.113281 Z M 61.089844 174.113281 " fill-opacity="1" fill-rule="nonzero"/><path fill="#ffffff" d="M 81.367188 204.40625 C 81.398438 204.40625 81.460938 204.40625 81.492188 204.40625 C 85.710938 204.34375 95.988281 202.605469 100.957031 197.539062 C 102.769531 195.707031 103.644531 193.59375 103.613281 191.292969 C 103.550781 187.226562 100.582031 181.757812 95.863281 177.035156 C 91.050781 172.25 85.679688 169.328125 81.492188 169.265625 C 81.429688 169.265625 81.335938 169.265625 81.242188 169.265625 C 75.492188 169.265625 69.398438 172.15625 64.933594 177.003906 C 60.902344 181.382812 58.871094 186.601562 59.339844 191.292969 C 60.183594 198.96875 75.117188 204.40625 81.367188 204.40625 Z M 65.214844 177.222656 C 69.617188 172.4375 75.617188 169.578125 81.273438 169.578125 C 81.335938 169.578125 81.429688 169.578125 81.492188 169.578125 C 85.523438 169.640625 90.957031 172.558594 95.644531 177.25 C 100.300781 181.910156 103.269531 187.285156 103.332031 191.292969 C 103.363281 193.5 102.488281 195.519531 100.769531 197.320312 C 98.863281 199.28125 96.144531 200.738281 93.269531 201.796875 C 95.269531 201.050781 97.113281 200.023438 98.582031 198.625 C 100.332031 196.917969 101.207031 194.898438 101.175781 192.570312 C 101.144531 188.46875 98.613281 183.527344 94.550781 179.644531 C 90.925781 176.164062 86.742188 174.207031 83.023438 174.207031 C 82.929688 174.207031 82.804688 174.207031 82.710938 174.207031 C 77.523438 174.363281 72.242188 176.847656 68.617188 180.855469 C 65.492188 184.273438 63.964844 188.4375 64.246094 192.570312 C 64.808594 200.429688 76.929688 203.347656 82.710938 203.535156 C 84.960938 203.566406 88.898438 203.257812 92.582031 202.011719 C 88.335938 203.472656 83.929688 204.0625 81.523438 204.09375 C 78.179688 204.125 72.835938 202.636719 68.523438 200.460938 C 65.433594 198.90625 60.152344 195.644531 59.714844 191.265625 C 59.214844 186.664062 61.246094 181.539062 65.214844 177.222656 Z M 98.363281 198.378906 C 94.394531 202.230469 87.117188 203.195312 83.335938 203.195312 C 83.117188 203.195312 82.929688 203.195312 82.710938 203.195312 C 80.054688 203.101562 75.585938 202.386719 71.679688 200.644531 C 68.585938 199.25 64.839844 196.699219 64.527344 192.539062 C 64.246094 188.5 65.742188 184.429688 68.804688 181.042969 C 72.398438 177.097656 77.585938 174.640625 82.679688 174.488281 C 86.398438 174.363281 90.613281 176.320312 94.300781 179.832031 C 98.300781 183.652344 100.800781 188.53125 100.832031 192.539062 C 100.863281 194.773438 100.019531 196.730469 98.363281 198.378906 Z M 93.082031 201.828125 C 92.957031 201.859375 92.832031 201.921875 92.738281 201.953125 C 92.863281 201.921875 92.957031 201.859375 93.082031 201.828125 Z M 93.082031 201.828125 " fill-opacity="1" fill-rule="nonzero"/><path fill="#ffffff" d="M 83.929688 179.023438 C 83.898438 179.023438 83.867188 179.023438 83.835938 179.023438 C 79.773438 179.054688 75.773438 180.824219 72.898438 183.871094 C 70.242188 186.664062 68.867188 190.175781 69.054688 193.75 C 69.210938 196.730469 71.148438 199.21875 74.648438 200.894531 C 77.273438 202.136719 80.710938 202.914062 83.867188 202.945312 C 88.085938 202.976562 93.613281 202.011719 96.550781 199.09375 C 97.988281 197.664062 98.707031 195.863281 98.675781 193.75 C 98.550781 186.417969 91.144531 179.023438 83.929688 179.023438 Z M 96.300781 198.84375 C 93.519531 201.640625 88.242188 202.636719 84.148438 202.636719 C 84.054688 202.636719 83.960938 202.636719 83.867188 202.636719 C 78.429688 202.574219 69.679688 200.085938 69.367188 193.75 C 69.179688 190.269531 70.523438 186.851562 73.148438 184.117188 C 75.992188 181.136719 79.898438 179.394531 83.867188 179.363281 C 83.898438 179.363281 83.929688 179.363281 83.960938 179.363281 C 90.988281 179.363281 98.269531 186.601562 98.363281 193.78125 C 98.363281 195.769531 97.675781 197.476562 96.300781 198.84375 Z M 96.300781 198.84375 " fill-opacity="1" fill-rule="nonzero"/><path fill="#ffffff" d="M 84.867188 183.746094 C 84.835938 183.746094 84.804688 183.746094 84.773438 183.746094 C 81.960938 183.746094 79.085938 184.988281 76.960938 187.164062 C 74.835938 189.304688 73.679688 192.101562 73.742188 194.835938 C 73.804688 197.289062 75.179688 199.339844 77.773438 200.707031 C 79.742188 201.765625 82.398438 202.386719 84.867188 202.386719 C 84.867188 202.386719 84.867188 202.386719 84.898438 202.386719 C 87.992188 202.386719 92.082031 201.359375 94.332031 199.09375 C 95.488281 197.914062 96.082031 196.484375 96.050781 194.867188 C 95.894531 189.273438 90.394531 183.777344 84.867188 183.746094 Z M 94.082031 198.84375 C 91.894531 201.050781 87.898438 202.042969 84.867188 202.042969 C 84.867188 202.042969 84.867188 202.042969 84.835938 202.042969 C 80.710938 202.042969 74.148438 200.085938 74.023438 194.804688 C 73.960938 192.132812 75.117188 189.429688 77.148438 187.347656 C 79.273438 185.207031 82.085938 183.992188 84.835938 184.023438 C 90.082031 184.085938 95.550781 189.523438 95.675781 194.804688 C 95.738281 196.359375 95.175781 197.695312 94.082031 198.84375 Z M 94.082031 198.84375 " fill-opacity="1" fill-rule="nonzero"/><path fill="#ffffff" d="M 85.773438 188.25 C 85.742188 188.25 85.710938 188.25 85.679688 188.25 C 81.523438 188.28125 78.179688 191.636719 78.210938 195.675781 C 78.210938 197.476562 79.117188 198.96875 80.742188 199.992188 C 82.085938 200.832031 83.867188 201.328125 85.679688 201.328125 C 87.554688 201.359375 90.113281 200.832031 91.707031 199.21875 C 92.675781 198.253906 93.175781 197.042969 93.144531 195.644531 C 93.113281 193.65625 92.332031 191.792969 90.925781 190.394531 C 89.585938 189.027344 87.742188 188.25 85.773438 188.25 Z M 91.519531 199.03125 C 90.019531 200.523438 87.617188 201.050781 85.835938 201.050781 C 85.804688 201.050781 85.742188 201.050781 85.710938 201.050781 C 80.804688 200.988281 78.554688 198.222656 78.554688 195.707031 C 78.523438 191.824219 81.742188 188.621094 85.710938 188.59375 C 87.617188 188.5625 89.398438 189.304688 90.738281 190.671875 C 92.082031 192.039062 92.832031 193.8125 92.863281 195.707031 C 92.894531 197.011719 92.425781 198.128906 91.519531 199.03125 Z M 91.519531 199.03125 " fill-opacity="1" fill-rule="nonzero"/><path fill="#ffffff" d="M 86.304688 192.476562 C 86.304688 192.476562 86.273438 192.476562 86.273438 192.476562 C 85.242188 192.476562 84.242188 192.910156 83.523438 193.65625 C 82.835938 194.371094 82.460938 195.300781 82.460938 196.296875 C 82.492188 198.285156 83.992188 199.589844 86.273438 199.589844 C 88.554688 199.621094 90.050781 198.316406 90.082031 196.296875 C 90.082031 195.273438 89.710938 194.308594 88.992188 193.59375 C 88.273438 192.878906 87.335938 192.476562 86.304688 192.476562 Z M 86.304688 199.28125 C 86.273438 199.28125 86.273438 199.28125 86.242188 199.28125 C 84.117188 199.25 82.773438 198.097656 82.742188 196.296875 C 82.742188 195.394531 83.085938 194.527344 83.710938 193.875 C 84.367188 193.191406 85.304688 192.816406 86.242188 192.816406 C 87.179688 192.816406 88.085938 193.160156 88.742188 193.84375 C 89.398438 194.496094 89.742188 195.363281 89.742188 196.296875 C 89.742188 198.097656 88.398438 199.28125 86.304688 199.28125 Z M 86.304688 199.28125 " fill-opacity="1" fill-rule="nonzero"/><g fill="#ffffff" fill-opacity="1"><g transform="translate(127.786578, 196.884069)"><g><path d="M 10.207031 0.277344 C 14.910156 0.277344 18.761719 -2.527344 18.761719 -7.175781 C 18.761719 -15.347656 6.847656 -13.78125 6.847656 -18.414062 C 6.847656 -19.980469 8.207031 -21.042969 9.945312 -21.042969 C 11.601562 -21.042969 13.066406 -20.085938 13.917969 -18.414062 L 17.59375 -20.660156 C 15.90625 -23.65625 13.136719 -24.980469 10.105469 -24.980469 C 5.957031 -24.980469 2.421875 -22.542969 2.421875 -18.1875 C 2.421875 -10.171875 14.335938 -11.882812 14.335938 -6.777344 C 14.335938 -5.035156 12.910156 -3.640625 10.277344 -3.640625 C 7.664062 -3.640625 5.488281 -5 5.175781 -8.066406 L 0.785156 -6.949219 C 1.566406 -2.109375 5.851562 0.277344 10.207031 0.277344 Z M 10.207031 0.277344 "/></g></g></g><g fill="#ffffff" fill-opacity="1"><g transform="translate(146.877158, 196.884069)"><g><path d="M 3.5 7.492188 L 8.136719 7.492188 L 18.082031 -17.402344 L 13.414062 -17.402344 L 8.953125 -5.3125 L 4.5625 -17.402344 L -0.105469 -17.402344 L 6.707031 -0.46875 Z M 3.5 7.492188 "/></g></g></g><g fill="#ffffff" fill-opacity="1"><g transform="translate(164.138859, 196.884069)"><g><path d="M 11.914062 0.347656 C 16.742188 0.347656 19.371094 -3.886719 19.371094 -8.710938 C 19.371094 -13.554688 16.742188 -17.769531 11.847656 -17.769531 C 9.980469 -17.769531 8.171875 -17.160156 6.949219 -15.660156 L 6.949219 -24.617188 L 2.5625 -24.617188 L 2.5625 0 L 6.949219 0 L 6.949219 -1.742188 C 8.171875 -0.242188 10.105469 0.347656 11.914062 0.347656 Z M 10.851562 -3.570312 C 7.925781 -3.570312 6.566406 -5.785156 6.566406 -8.710938 C 6.566406 -11.636719 7.925781 -13.917969 10.851562 -13.917969 C 13.78125 -13.917969 15.085938 -11.601562 15.085938 -8.710938 C 15.085938 -5.820312 13.78125 -3.570312 10.851562 -3.570312 Z M 10.851562 -3.570312 "/></g></g></g><g fill="#ffffff" fill-opacity="1"><g transform="translate(183.908737, 196.884069)"><g><path d="M 9.773438 0.347656 C 12.699219 0.347656 15.015625 -0.679688 16.914062 -2.789062 L 13.988281 -5.347656 C 12.769531 -3.988281 11.375 -3.5 9.808594 -3.5 C 7.074219 -3.5 5.820312 -5.035156 5.453125 -7.316406 L 17.402344 -7.316406 C 17.492188 -7.5625 17.558594 -8.273438 17.558594 -8.988281 C 17.558594 -12.875 15.589844 -17.769531 9.496094 -17.769531 C 3.605469 -17.769531 0.957031 -13.171875 0.957031 -8.640625 C 0.957031 -3.953125 3.78125 0.347656 9.773438 0.347656 Z M 5.453125 -10.382812 C 5.851562 -12.558594 6.949219 -14.199219 9.460938 -14.199219 C 11.671875 -14.199219 13.101562 -12.875 13.378906 -10.382812 Z M 5.453125 -10.382812 "/></g></g></g><g fill="#ffffff" fill-opacity="1"><g transform="translate(201.780065, 196.884069)"><g><path d="M 2.527344 0 L 6.636719 0 L 6.636719 -7.351562 C 6.636719 -11.777344 8.710938 -13.621094 10.695312 -13.621094 C 11.375 -13.621094 12.019531 -13.414062 12.59375 -13.03125 L 14.527344 -16.515625 C 13.691406 -17.367188 12.492188 -17.769531 11.339844 -17.769531 C 9.390625 -17.769531 7.421875 -16.585938 6.671875 -14.476562 L 6.671875 -17.402344 L 2.527344 -17.402344 Z M 2.527344 0 "/></g></g></g><g fill="#ffffff" fill-opacity="1"><g transform="translate(215.262079, 196.884069)"><g><path d="M 3.171875 0 L 7.59375 0 L 7.59375 -6.394531 L 12.59375 -11.566406 L 20.191406 0 L 25.695312 0 L 15.660156 -14.527344 L 25.503906 -24.617188 L 19.582031 -24.617188 L 7.59375 -11.777344 L 7.59375 -24.617188 L 3.171875 -24.617188 Z M 3.171875 0 "/></g></g></g><g fill="#ffffff" fill-opacity="1"><g transform="translate(240.518599, 196.884069)"><g><path d="M 9.808594 0.347656 C 15.191406 0.347656 18.726562 -3.816406 18.726562 -8.746094 C 18.726562 -13.65625 15.191406 -17.769531 9.808594 -17.769531 C 4.425781 -17.769531 0.886719 -13.65625 0.886719 -8.746094 C 0.886719 -3.816406 4.425781 0.347656 9.808594 0.347656 Z M 9.808594 -3.308594 C 6.601562 -3.308594 5.3125 -5.886719 5.3125 -8.746094 C 5.3125 -11.601562 6.601562 -14.09375 9.808594 -14.09375 C 13.03125 -14.09375 14.300781 -11.601562 14.300781 -8.746094 C 14.300781 -5.886719 13.03125 -3.308594 9.808594 -3.308594 Z M 9.808594 -3.308594 "/></g></g></g><g fill="#ffffff" fill-opacity="1"><g transform="translate(259.452425, 196.884069)"><g><path d="M 2.527344 0 L 6.742188 0 L 6.742188 -9.527344 C 6.742188 -12.558594 8.273438 -13.847656 10.660156 -13.847656 C 12.839844 -13.847656 13.988281 -12.195312 13.988281 -9.914062 L 13.988281 0 L 18.1875 0 L 18.1875 -10.453125 C 18.1875 -14.09375 16.445312 -17.769531 11.882812 -17.769531 C 10.171875 -17.769531 8.136719 -17.089844 6.742188 -15.382812 L 6.742188 -17.402344 L 2.527344 -17.402344 Z M 2.527344 0 "/></g></g></g><g fill="#ffffff" fill-opacity="1"><g transform="translate(278.96103, 196.884069)"><g><path d="M 7.769531 0.347656 C 11.0625 0.347656 14.5625 -1.429688 14.5625 -5.453125 C 14.5625 -11.847656 5.714844 -10.277344 5.714844 -12.910156 C 5.714844 -13.726562 6.566406 -14.40625 7.960938 -14.40625 C 9.84375 -14.40625 10.816406 -13.273438 11.410156 -12.195312 L 14.703125 -13.988281 C 13.378906 -16.339844 11.097656 -17.769531 8.101562 -17.769531 C 4.738281 -17.769531 1.636719 -16.027344 1.636719 -12.351562 C 1.636719 -6.203125 10.382812 -8.171875 10.382812 -5.242188 C 10.382812 -4.320312 9.527344 -3.171875 7.5625 -3.171875 C 5.242188 -3.171875 4.320312 -4.773438 3.851562 -6.027344 L 0.46875 -4.53125 C 1.324219 -1.847656 4.109375 0.347656 7.769531 0.347656 Z M 7.769531 0.347656 "/></g></g></g><g fill="#ffffff" fill-opacity="1"><g transform="translate(294.080322, 196.884069)"><g><path d="M 8.34375 0.347656 C 10.417969 0.347656 12.230469 -0.402344 13.484375 -2.039062 L 13.484375 0 L 17.804688 0 L 17.804688 -17.402344 L 13.484375 -17.402344 L 13.484375 -9.5625 C 13.484375 -4.53125 11.445312 -3.5 9.460938 -3.5 C 6.882812 -3.5 6.304688 -5.242188 6.304688 -8.101562 L 6.304688 -17.402344 L 2.003906 -17.402344 L 2.003906 -8.238281 C 2.003906 -2.996094 3.953125 0.347656 8.34375 0.347656 Z M 8.34375 0.347656 "/></g></g></g><g fill="#ffffff" fill-opacity="1"><g transform="translate(313.693434, 196.884069)"><g><path d="M 6.0625 0.347656 C 7.074219 0.347656 8.34375 0.175781 9.234375 0 L 9.234375 -3.570312 C 8.78125 -3.5 8.308594 -3.464844 8.066406 -3.464844 C 7.210938 -3.464844 6.671875 -3.816406 6.671875 -4.632812 L 6.671875 -24.617188 L 2.421875 -24.617188 L 2.421875 -3.464844 C 2.421875 -0.402344 4.058594 0.347656 6.0625 0.347656 Z M 6.0625 0.347656 "/></g></g></g><g fill="#ffffff" fill-opacity="1"><g transform="translate(322.96031, 196.884069)"><g><path d="M 8.710938 0.347656 C 9.914062 0.347656 11.203125 0.0703125 11.847656 -0.175781 L 11.847656 -4.023438 C 11.269531 -3.746094 10.3125 -3.398438 9.425781 -3.398438 C 8.308594 -3.398438 7.457031 -3.886719 7.457031 -5.558594 L 7.457031 -13.847656 L 11.847656 -13.847656 L 11.847656 -17.402344 L 7.457031 -17.402344 L 7.457031 -24.753906 L 3.308594 -21.722656 L 3.308594 -17.402344 L 0.433594 -17.402344 L 0.433594 -13.847656 L 3.242188 -13.847656 L 3.242188 -4.808594 C 3.242188 -1.636719 5.277344 0.347656 8.710938 0.347656 Z M 8.710938 0.347656 "/></g></g></g></svg>