<?xml version="1.0" encoding="iso-8859-1"?>
<!-- Generator: Adobe Illustrator 19.0.0, SVG Export Plug-In . SVG Version: 6.00 Build 0)  -->
<svg version="1.1" id="Layer_1" xmlns="http://www.w3.org/2000/svg" xmlns:xlink="http://www.w3.org/1999/xlink" x="0px" y="0px"
	 viewBox="-100 -70 900 900" style="enable-background:new 0 0 322 322;" xml:space="preserve">
<g id="XMLID_841_">
	<path id="XMLID_842_" style="fill:#FF9811;" d="M266,175v-15h-30v15c0,11.028-8.973,20-20,20v-88h-25h-5h-25h-25h-5h-25v88
		c-11.028,0-20-8.972-20-20v-15H56v15c0,27.57,22.43,50,50,50v6c0,11.028-8.972,20-20,20H61v30h25c19.768,0,36.891-11.532,45-28.221
		V272c0,11.028-8.972,20-20,20v30c27.57,0,50-22.43,50-50c0,27.57,22.43,50,50,50v-30c-11.027,0-20-8.972-20-20v-19.221
		C199.109,269.468,216.232,281,236,281h25v-30h-25c-11.027,0-20-8.972-20-20v-6C243.57,225,266,202.57,266,175z"/>
	<path id="XMLID_843_" style="fill:#9DD7F5;" d="M161,0C105.54,0,58.196,43.918,39.52,93.704C71.561,123.06,114.223,141,161,141
		s89.439-17.94,121.48-47.296C263.804,43.918,216.46,0,161,0z"/>
	<path id="XMLID_844_" style="fill:#FF5023;" d="M186,107h5h25v88c11.027,0,20-8.972,20-20v-15h30v15c0,27.57-22.43,50-50,50v6
		c0,11.028,8.973,20,20,20h25v30h-25c-19.768,0-36.891-11.532-45-28.221V272c0,11.028,8.973,20,20,20v30c-27.57,0-50-22.43-50-50
		V107H186z"/>
	<g id="XMLID_845_">
		<g id="XMLID_846_">
			<path id="XMLID_847_" d="M160.654,117.996c0.002,0.001,0.013,0.004,0.013,0.004s0.01-0.004,0.011-0.004
				C160.67,117.996,160.662,117.996,160.654,117.996z"/>
		</g>
		<g id="XMLID_848_">
			<path id="XMLID_849_" style="fill:#78B9EB;" d="M161,141c46.777,0,89.439-17.94,121.48-47.296C263.804,43.918,216.46,0,161,0
				C161,46,161,107.334,161,141z"/>
		</g>
	</g>
	<g id="XMLID_850_">
		<path id="XMLID_851_" style="fill:#9DD7F5;" d="M161.346,117.996c-0.002,0.001-0.013,0.004-0.013,0.004l-0.011-0.004
			C161.33,117.996,161.338,117.996,161.346,117.996z"/>
	</g>
	<g id="XMLID_852_">
		<circle id="XMLID_853_" style="fill:#001B3C;" cx="136" cy="87" r="10"/>
	</g>
	<g id="XMLID_854_">
		<circle id="XMLID_855_" style="fill:#001B3C;" cx="186" cy="87" r="10"/>
	</g>
</g>
<g>
</g>
<g>
</g>
<g>
</g>
<g>
</g>
<g>
</g>
<g>
</g>
<g>
</g>
<g>
</g>
<g>
</g>
<g>
</g>
<g>
</g>
<g>
</g>
<g>
</g>
<g>
</g>
<g>
</g>
</svg>
