<svg xmlns="http://www.w3.org/2000/svg" version="1.1" xmlns:xlink="http://www.w3.org/1999/xlink" xmlns:svgjs="http://svgjs.dev/svgjs" width="1500" height="1687" viewBox="0 0 1500 1687"><g transform="matrix(1,0,0,1,0.001973437500396358,0)"><svg viewBox="0 0 320 360" data-background-color="#162836" preserveAspectRatio="xMidYMid meet" height="1687" width="1500" xmlns="http://www.w3.org/2000/svg" xmlns:xlink="http://www.w3.org/1999/xlink"><g id="tight-bounds" transform="matrix(1,0,0,1,-0.00042100000007394556,0)"><svg viewBox="0 0 320 360" height="360" width="320"><g><svg></svg></g><g><svg viewBox="0 0 320 360" height="360" width="320"><g><path transform="translate(-9.31575,10.66434) scale(0.39811,0.39811)" d="M827.2 486c-0.2-21.2-13.6-38-13.8-59.2-0.1-21.2 13.1-46.8 12.9-68-6.7-20.1-24.7-31.9-31.4-52-6.7-20.1-2.1-48.6-8.7-68.7-12.6-17.1-33.4-22.7-45.9-39.7-12.6-17.1-17-45.6-29.5-62.6-17.2-12.3-38.7-11.3-56-23.6-17.2-12.3-30.2-38.1-47.5-50.4-20.2-6.4-40.3 1.3-60.5-5.2-20.2-6.4-40.5-26.9-60.7-33.3-21.2 0.2-38 13.6-59.2 13.8-21.2 0.1-46.8-13.1-68-12.9-20.1 6.7-31.9 24.7-52 31.4-20.1 6.7-48.6 2.1-68.7 8.8-17.1 12.6-22.7 33.4-39.7 45.9-17.1 12.6-45.6 17-62.6 29.6-12.3 17.2-11.3 38.7-23.6 56-12.3 17.2-38.1 30.2-50.4 47.5-6.4 20.2 1.2 40.3-5.2 60.5-6.4 20.2-26.9 40.5-33.3 60.7 0.1 21.2 13.6 38 13.8 59.2 0.1 21.2-13.1 46.8-12.9 68 6.7 20.1 24.7 31.9 31.4 52 6.7 20.1 2.1 48.6 8.8 68.7 12.6 17.1 33.4 22.7 45.9 39.8 12.6 17.1 17 45.6 29.5 62.6 17.2 12.3 38.7 11.3 56 23.6 17.2 12.3 30.2 38.1 47.5 50.4 20.2 6.4 40.3-1.2 60.5 5.2 20.2 6.4 40.5 26.9 60.7 33.3 21.2-0.2 38-13.6 59.2-13.8 21.2-0.1 46.8 13.1 68 12.9 20.1-6.7 31.9-24.7 52-31.4 20.1-6.7 48.6-2.1 68.7-8.8 17.1-12.6 22.7-33.4 39.8-45.9 17.1-12.6 45.6-17 62.6-29.5 12.3-17.2 11.3-38.7 23.6-56 12.3-17.2 38.1-30.2 50.4-47.5 6.4-20.2-1.2-40.3 5.2-60.5 6.2-20.4 26.7-40.7 33.1-60.9zM792 544.4c-9.1 17.9-31.4 33.8-40.6 51.7-9.1 17.9-5.1 37.9-14.2 55.8-14.2 14.2-40.3 22.4-54.6 36.6-14.2 14.2-16.5 34.5-30.8 48.7-17.9 9.1-45.3 8.8-63.2 18-17.9 9.1-26.4 27.7-44.3 36.8-19.9 3.1-45.8-5.6-65.7-2.5-19.9 3.1-33.7 18.2-53.5 21.3-19.9-3.1-41.8-19.5-61.7-22.6-19.9-3.2-37.6 6.9-57.5 3.7-17.9-9.1-33.8-31.5-51.7-40.6-17.9-9.1-37.9-5.1-55.9-14.2-14.2-14.2-22.4-40.3-36.6-54.6-14.2-14.2-34.5-16.6-48.7-30.8-9.1-17.9-8.8-45.3-18-63.2-9.1-17.9-27.7-26.4-36.8-44.3-3.1-19.9 5.6-45.8 2.5-65.7-3.2-19.9-18.2-33.7-21.3-53.5 3.2-19.9 19.5-41.8 22.6-61.7 3.1-19.9-6.9-37.6-3.7-57.5 9.1-17.9 31.5-33.8 40.6-51.7 9.1-17.9 5.1-37.9 14.2-55.9 14.2-14.2 40.3-22.4 54.6-36.6 14.2-14.2 16.6-34.5 30.8-48.7 17.9-9.1 45.3-8.8 63.2-18 17.9-9.1 26.4-27.7 44.3-36.8 19.9-3.1 45.8 5.6 65.7 2.5 19.9-3.1 33.7-18.2 53.5-21.3 19.9 3.1 41.8 19.5 61.7 22.6 19.9 3.2 37.6-6.9 57.5-3.7 17.9 9.1 33.8 31.5 51.7 40.6 17.9 9.1 37.9 5.1 55.9 14.2 14.2 14.2 22.4 40.3 36.6 54.6 14.2 14.2 34.5 16.6 48.7 30.8 9.1 17.9 8.8 45.3 18 63.2 9.1 17.9 27.7 26.4 36.8 44.3 3.2 19.9-5.6 45.8-2.5 65.7 3.1 19.9 18.2 33.7 21.3 53.5-3.1 19.9-19.5 41.8-22.6 61.7-3.1 19.9 6.9 37.7 3.7 57.6z" fill="#cf7650" fill-rule="nonzero" stroke="none" stroke-width="1" stroke-linecap="butt" stroke-linejoin="miter" stroke-miterlimit="10" stroke-dasharray="" stroke-dashoffset="0" font-family="none" font-weight="none" font-size="none" text-anchor="none" style="mix-blend-mode: normal" data-fill-palette-color="tertiary"></path></g><g transform="matrix(1,0,0,1,48,144.97908979598805)"><svg viewBox="0 0 224 70.04182040802391" height="70.04182040802391" width="224"><g><svg viewBox="0 0 224 70.04182040802391" height="70.04182040802391" width="224"><g transform="matrix(1,0,0,1,0,43.288654950633095)"><svg viewBox="0 0 224 26.75316545739081" height="26.75316545739081" width="224"><g id="textblocktransform"><svg viewBox="0 0 224 26.75316545739081" height="26.75316545739081" width="224" id="textblock"><g><svg viewBox="0 0 224 26.75316545739081" height="26.75316545739081" width="224"><g transform="matrix(1,0,0,1,0,0)"><svg width="224" viewBox="5.42 -40.48 343.19 40.989999999999995" height="26.75316545739081" data-palette-color="#cf7650"><path d="M5.42 0L5.42-38.16 13.16-38.16 13.16-18.41 33.3-38.16 43.21-38.16 24.41-19.95 43.21 0 32.91 0 18.85-14.55 13.16-9.06 13.16 0 5.42 0ZM46.12-13.75L46.12-28.83 53.32-28.83 53.32-14.77Q53.32-12.77 53.76-11.12 54.2-9.47 55.26-8.3 56.32-7.13 58.09-6.48 59.86-5.83 62.5-5.83L62.5-5.83Q63.74-5.83 65.02-6.1 66.31-6.37 67.48-6.85 68.65-7.32 69.66-7.98 70.68-8.64 71.41-9.42L71.41-9.42 71.41-28.83 78.64-28.83 78.64 0 71.41 0 71.41-2.47Q68.75-0.88 66.06-0.2 63.38 0.49 60.96 0.49L60.96 0.49Q57 0.49 54.18-0.46 51.36-1.42 49.57-3.23 47.78-5.05 46.95-7.7 46.12-10.35 46.12-13.75L46.12-13.75ZM85.83-3.37L88.96-8.84Q91.89-7.08 95.41-6.25 98.92-5.42 102.61-5.42L102.61-5.42Q105.1-5.42 106.76-5.76 108.42-6.1 109.42-6.64 110.42-7.18 110.83-7.86 111.25-8.54 111.25-9.25L111.25-9.25Q111.25-10.28 110.36-11.01 109.47-11.74 107.42-11.74L107.42-11.74Q106.46-11.74 105.37-11.62 104.27-11.5 103.06-11.36 101.85-11.23 100.54-11.11 99.24-10.99 97.9-10.99L97.9-10.99Q94.97-10.99 92.9-11.62 90.84-12.26 89.55-13.35 88.25-14.45 87.67-15.95 87.08-17.46 87.08-19.19L87.08-19.19Q87.08-21.39 88.11-23.24 89.13-25.1 91.04-26.45 92.94-27.81 95.64-28.56 98.33-29.32 101.66-29.32L101.66-29.32Q103.39-29.32 105.28-29.11 107.17-28.91 109-28.56 110.83-28.22 112.52-27.77 114.2-27.32 115.5-26.81L115.5-26.81 113.23-21.19Q110.47-22.22 107.72-22.81 104.98-23.41 102.07-23.41L102.07-23.41Q100.04-23.41 98.64-23.11 97.24-22.8 96.36-22.3 95.48-21.8 95.08-21.15 94.67-20.51 94.67-19.8L94.67-19.8Q94.67-19.29 94.88-18.87 95.09-18.46 95.56-18.15 96.04-17.85 96.81-17.69 97.58-17.53 98.7-17.53L98.7-17.53Q99.73-17.53 100.87-17.65 102.02-17.77 103.27-17.91 104.51-18.04 105.84-18.16 107.17-18.29 108.56-18.29L108.56-18.29Q111.15-18.29 113.09-17.68 115.03-17.07 116.3-15.97 117.57-14.87 118.21-13.38 118.84-11.89 118.84-10.13L118.84-10.13Q118.84-7.86 117.79-5.91 116.74-3.96 114.67-2.53 112.59-1.1 109.5-0.29 106.42 0.51 102.36 0.51L102.36 0.51Q99.87 0.51 97.55 0.21 95.23-0.1 93.13-0.62 91.04-1.15 89.19-1.86 87.35-2.56 85.83-3.37L85.83-3.37ZM125.33 0L125.33-40.48 132.56-40.48 132.56-26.61Q134.83-27.86 137.63-28.59 140.42-29.32 143.5-29.32L143.5-29.32Q147.06-29.32 149.91-28.27 152.75-27.22 154.73-25.26 156.71-23.29 157.77-20.48 158.83-17.68 158.83-14.16L158.83-14.16 158.83 0 151.63 0 151.63-13.87Q151.63-15.92 150.97-17.61 150.31-19.31 149.04-20.53 147.77-21.75 145.95-22.42 144.13-23.1 141.84-23.1L141.84-23.1Q139.08-23.1 136.71-22.22 134.34-21.34 132.56-20L132.56-20 132.56 0 125.33 0ZM166.91-13.75L166.91-28.83 174.11-28.83 174.11-14.77Q174.11-12.77 174.55-11.12 174.99-9.47 176.05-8.3 177.11-7.13 178.88-6.48 180.65-5.83 183.29-5.83L183.29-5.83Q184.54-5.83 185.82-6.1 187.1-6.37 188.27-6.85 189.44-7.32 190.46-7.98 191.47-8.64 192.2-9.42L192.2-9.42 192.2-28.83 199.43-28.83 199.43 0 192.2 0 192.2-2.47Q189.54-0.88 186.86-0.2 184.17 0.49 181.75 0.49L181.75 0.49Q177.8 0.49 174.98-0.46 172.16-1.42 170.36-3.23 168.57-5.05 167.74-7.7 166.91-10.35 166.91-13.75L166.91-13.75ZM208.8 0L208.8-28.81 216.03-28.81 216.03-26.37Q218.74-28.03 221.31-28.67 223.89-29.32 226.35-29.32L226.35-29.32Q229.8-29.32 232.68-28.22 235.56-27.12 237.61-24.9L237.61-24.9Q239.2-26.12 240.73-26.97 242.27-27.81 243.81-28.33 245.35-28.86 246.94-29.09 248.52-29.32 250.21-29.32L250.21-29.32Q253.75-29.32 256.63-28.36 259.51-27.39 261.55-25.49 263.59-23.58 264.7-20.74 265.81-17.9 265.81-14.16L265.81-14.16 265.81 0 258.61 0 258.61-12.99Q258.61-15.36 257.93-17.22 257.26-19.09 256.05-20.37 254.85-21.66 253.17-22.33 251.5-23 249.5-23L249.5-23Q248.4-23 247.25-22.79 246.11-22.58 245.02-22.14 243.93-21.7 242.98-21.03 242.03-20.36 241.32-19.46L241.32-19.46 241.32 0 234.12 0 234.12-12.99Q234.12-15.36 233.45-17.22 232.78-19.09 231.57-20.37 230.36-21.66 228.66-22.33 226.97-23 224.94-23L224.94-23Q223.69-23 222.44-22.74 221.18-22.49 220.02-22.02 218.86-21.56 217.85-20.9 216.83-20.24 216.03-19.41L216.03-19.41 216.03 0 208.8 0ZM278.7-32.74L278.7-32.74Q277.62-32.74 276.76-33.04 275.89-33.35 275.28-33.87 274.67-34.4 274.34-35.1 274.01-35.79 274.01-36.57L274.01-36.57Q274.01-37.38 274.34-38.07 274.67-38.77 275.28-39.28 275.89-39.79 276.76-40.1 277.62-40.41 278.7-40.41L278.7-40.41Q279.79-40.41 280.66-40.1 281.53-39.79 282.14-39.28 282.75-38.77 283.08-38.07 283.41-37.38 283.41-36.57L283.41-36.57Q283.41-35.79 283.08-35.1 282.75-34.4 282.14-33.87 281.53-33.35 280.66-33.04 279.79-32.74 278.7-32.74ZM275.08 0L275.08-28.81 282.31-28.81 282.31 0 275.08 0ZM291.56 0L291.56-28.81 298.79-28.81 298.79-24.66Q301.18-26.44 303.84-27.73 306.5-29.03 309.14-29.71L309.14-29.71 311.26-23.1Q307.09-22.68 303.93-21.23 300.76-19.78 298.79-17.14L298.79-17.14 298.79 0 291.56 0ZM315.26-9.08L315.26-9.08Q315.26-11.16 316.17-12.87 317.07-14.58 318.88-15.81 320.68-17.04 323.38-17.71 326.08-18.38 329.67-18.38L329.67-18.38Q332.33-18.38 335.27-17.99 338.21-17.6 341.34-16.8L341.34-16.8Q341.22-18.16 340.51-19.32 339.8-20.48 338.54-21.33 337.28-22.17 335.51-22.63 333.74-23.1 331.5-23.1L331.5-23.1Q330.28-23.1 328.81-22.95 327.35-22.8 325.79-22.51 324.22-22.22 322.7-21.78 321.17-21.34 319.85-20.73L319.85-20.73 317.66-26.66Q319.29-27.25 321.16-27.73 323.03-28.22 324.98-28.58 326.93-28.93 328.89-29.13 330.84-29.32 332.67-29.32L332.67-29.32Q340.75-29.32 344.68-25.2 348.61-21.07 348.61-12.55L348.61-12.55 348.61 0 341.39 0 341.39-2.71Q340.26-2.05 338.93-1.46 337.6-0.88 336.04-0.44 334.48 0 332.68 0.26 330.89 0.51 328.89 0.51L328.89 0.51Q325.52 0.51 322.97-0.22 320.41-0.95 318.71-2.25 317-3.54 316.13-5.29 315.26-7.03 315.26-9.08ZM322.88-9.33L322.88-9.33Q322.88-8.62 323.25-7.97 323.61-7.32 324.42-6.82 325.22-6.32 326.48-6.02 327.74-5.71 329.52-5.71L329.52-5.71Q331.43-5.71 333.21-6.05 334.99-6.4 336.53-6.96 338.07-7.52 339.31-8.25 340.56-8.98 341.39-9.77L341.39-9.77 341.39-11.04Q339.73-11.5 338.1-11.82 336.48-12.13 335-12.32 333.52-12.5 332.22-12.57 330.91-12.65 329.94-12.65L329.94-12.65Q327.91-12.65 326.57-12.38 325.22-12.11 324.39-11.66 323.56-11.21 323.22-10.6 322.88-9.99 322.88-9.33Z" opacity="1" transform="matrix(1,0,0,1,0,0)" fill="#cf7650" class="wordmark-text-0" data-fill-palette-color="primary" id="text-0"></path></svg></g></svg></g></svg></g></svg></g><g transform="matrix(1,0,0,1,93.51356266894295,0)"><svg viewBox="0 0 36.972874662114094 36.9728746621141" height="36.9728746621141" width="36.972874662114094"><g><svg></svg></g><g id="icon-0"><svg viewBox="0 0 36.972874662114094 36.9728746621141" height="36.9728746621141" width="36.972874662114094"><g><path transform="scale(0.36973,0.36973)" d="M30 100c-16.569 0-30-13.431-30-30v-40c0-16.569 13.431-30 30-30h40c16.569 0 30 13.431 30 30v40c0 16.569-13.431 30-30 30z" fill="#cf7650" fill-rule="nonzero" stroke="none" stroke-width="1" stroke-linecap="butt" stroke-linejoin="miter" stroke-miterlimit="10" stroke-dasharray="" stroke-dashoffset="0" font-family="none" font-weight="none" font-size="none" text-anchor="none" style="mix-blend-mode: normal" data-fill-palette-color="accent"></path></g><g transform="matrix(1,0,0,1,13.096474222604728,7.39457493242282)"><svg viewBox="0 0 10.779926216904638 22.18372479726846" height="22.18372479726846" width="10.779926216904638"><g><svg version="1.1" xmlns="http://www.w3.org/2000/svg" xmlns:xlink="http://www.w3.org/1999/xlink" x="0" y="0" viewBox="0 1.2220706483982298 48 98.77792935160177" enable-background="new 0 0 48.317 100" xml:space="preserve" width="10.779926216904638" height="22.18372479726846" class="icon-cg-0" data-fill-palette-color="quaternary" id="cg-0"><circle fill="#162836" cx="24.158" cy="10.686" r="11" data-fill-palette-color="quaternary"></circle><g fill="#162836" data-fill-palette-color="quaternary"><polygon fill="#162836" points="48.317,91.638 36.238,91.638 36.238,35.827 36.238,27.524 12.079,27.524 0.232,27.524 		0.232,35.827 12.079,35.827 12.079,91.638 0,91.638 0,100 20.4,100 20.4,63.763 27.102,63.763 27.102,100 48.317,100 	" data-fill-palette-color="quaternary"></polygon></g></svg></g></svg></g></svg></g></svg></g><g></g></svg></g></svg></g></svg></g><defs></defs></svg><rect width="320" height="360" fill="none" stroke="none" visibility="hidden"></rect></g></svg></g></svg>