<svg xmlns="http://www.w3.org/2000/svg" width="375" viewBox="0 0 375 375" height="375" version="1.0"><path fill="#5BD1D7" d="M 91.507812 40.675781 C 160.140625 4.15625 252.089844 42.097656 300 84.15625 C 313.691406 96.167969 346.878906 126.144531 354.714844 174.183594 C 364.449219 233.859375 332.585938 306.191406 259.503906 337.128906 C 179.953125 370.804688 91.011719 338.890625 49.382812 287.082031 C 10.449219 238.632812 18.242188 181.582031 21.027344 161.203125 C 24.292969 137.289062 34.007812 71.269531 91.507812 40.675781"/><path fill="#CADDFF" d="M 242.710938 70.375 C 242.710938 46.136719 262.355469 26.492188 286.589844 26.492188 C 310.820312 26.492188 330.464844 46.136719 330.464844 70.375 C 330.464844 94.609375 310.820312 114.261719 286.589844 114.261719 C 262.355469 114.261719 242.710938 94.609375 242.710938 70.375"/><path fill="#F2FAFF" d="M 251.34375 70.378906 C 251.34375 50.910156 267.121094 35.128906 286.585938 35.128906 C 306.046875 35.128906 321.828125 50.910156 321.828125 70.378906 C 321.828125 89.84375 306.046875 105.625 286.585938 105.625 C 267.121094 105.625 251.34375 89.84375 251.34375 70.378906"/><path fill="#CADDFF" d="M 259.480469 70.375 C 259.480469 55.398438 271.617188 43.261719 286.589844 43.261719 C 301.558594 43.261719 313.695312 55.398438 313.695312 70.375 C 313.695312 85.351562 301.558594 97.488281 286.589844 97.488281 C 271.617188 97.488281 259.480469 85.351562 259.480469 70.375"/><path fill="#F2FAFF" d="M 269.085938 70.375 C 269.085938 60.707031 276.921875 52.867188 286.585938 52.867188 C 296.257812 52.867188 304.089844 60.707031 304.089844 70.375 C 304.089844 80.046875 296.257812 87.882812 286.585938 87.882812 C 276.921875 87.882812 269.085938 80.046875 269.085938 70.375"/><path fill="#43727A" d="M 277.027344 70.375 C 277.027344 65.09375 281.308594 60.816406 286.585938 60.816406 C 291.867188 60.816406 296.144531 65.09375 296.144531 70.375 C 296.144531 75.65625 291.867188 79.9375 286.585938 79.9375 C 281.308594 79.9375 277.027344 75.65625 277.027344 70.375"/><path fill="#43727A" d="M 246.550781 53.007812 C 246.46875 53.007812 246.382812 52.988281 246.300781 52.949219 C 245.992188 52.8125 245.855469 52.449219 245.996094 52.144531 C 250.523438 42.070312 258.585938 34.074219 268.6875 29.628906 C 268.996094 29.492188 269.355469 29.632812 269.492188 29.941406 C 269.628906 30.25 269.488281 30.613281 269.179688 30.75 C 259.351562 35.074219 251.515625 42.847656 247.109375 52.644531 C 247.007812 52.871094 246.785156 53.007812 246.550781 53.007812"/><path fill="#43727A" d="M 260.699219 79.050781 C 260.4375 79.050781 260.195312 78.882812 260.113281 78.621094 C 259.289062 75.960938 258.867188 73.1875 258.867188 70.378906 C 258.867188 70.039062 259.140625 69.765625 259.480469 69.765625 C 259.816406 69.765625 260.089844 70.039062 260.089844 70.378906 C 260.089844 73.066406 260.488281 75.714844 261.28125 78.257812 C 261.382812 78.582031 261.203125 78.921875 260.878906 79.023438 C 260.816406 79.042969 260.757812 79.050781 260.699219 79.050781"/><path fill="#43727A" d="M 313.144531 65.519531 C 312.859375 65.519531 312.605469 65.320312 312.546875 65.03125 C 311.339844 59.140625 308.105469 53.773438 303.441406 49.925781 C 303.183594 49.707031 303.144531 49.324219 303.359375 49.0625 C 303.574219 48.800781 303.957031 48.765625 304.21875 48.980469 C 309.101562 53.007812 312.480469 58.625 313.746094 64.789062 C 313.8125 65.121094 313.597656 65.441406 313.269531 65.511719 C 313.226562 65.519531 313.183594 65.519531 313.144531 65.519531"/><path fill="#43727A" d="M 259.480469 70.988281 C 259.140625 70.988281 258.871094 70.714844 258.871094 70.375 C 258.871094 55.089844 271.300781 42.652344 286.585938 42.652344 C 289.472656 42.652344 292.316406 43.09375 295.042969 43.964844 C 295.363281 44.066406 295.539062 44.410156 295.4375 44.730469 C 295.335938 45.054688 294.988281 45.230469 294.667969 45.128906 C 292.066406 44.296875 289.347656 43.871094 286.585938 43.871094 C 271.976562 43.871094 260.089844 55.761719 260.089844 70.375 C 260.089844 70.714844 259.816406 70.988281 259.480469 70.988281"/><path fill="#43727A" d="M 356.089844 84.847656 C 337.304688 88.855469 331.929688 72.007812 306.582031 84.847656 L 306.582031 52.75 C 325.441406 46.941406 336.871094 55.644531 356.089844 52.75 L 349.019531 68.644531 L 356.089844 84.847656"/><path d="M 305.972656 132.472656 L 305.121094 132.472656 C 304.449219 132.472656 303.902344 131.925781 303.902344 131.25 L 303.902344 50.917969 C 303.902344 50.242188 304.449219 49.695312 305.121094 49.695312 L 305.972656 49.695312 C 306.648438 49.695312 307.195312 50.242188 307.195312 50.917969 L 307.195312 131.25 C 307.195312 131.925781 306.648438 132.472656 305.972656 132.472656"/><path fill="#F2FAFF" d="M 288.910156 358.167969 L 270.035156 358.167969 L 270.035156 126.113281 L 288.71875 124.792969 L 288.910156 358.167969"/><path d="M 270.648438 357.558594 L 288.296875 357.558594 L 288.113281 125.449219 L 270.648438 126.683594 Z M 288.910156 358.777344 L 270.039062 358.777344 C 269.699219 358.777344 269.425781 358.503906 269.425781 358.167969 L 269.425781 126.113281 C 269.425781 125.792969 269.675781 125.527344 269.996094 125.503906 L 288.679688 124.183594 C 288.84375 124.171875 289.015625 124.230469 289.140625 124.347656 C 289.261719 124.460938 289.332031 124.625 289.332031 124.792969 L 289.523438 358.167969 C 289.523438 358.328125 289.457031 358.484375 289.34375 358.597656 C 289.230469 358.714844 289.074219 358.777344 288.910156 358.777344"/><path fill="#CADDFF" d="M 339.515625 358.167969 L 288.910156 358.167969 C 288.804688 358.167969 288.71875 358.050781 288.71875 357.902344 L 288.71875 125.070312 C 288.71875 124.917969 288.8125 124.800781 288.914062 124.804688 L 339.523438 127.476562 C 339.621094 127.480469 339.707031 127.597656 339.707031 127.742188 L 339.707031 357.902344 C 339.707031 358.050781 339.621094 358.167969 339.515625 358.167969"/><path d="M 289.332031 357.558594 L 339.09375 357.558594 L 339.09375 128.066406 L 289.332031 125.4375 Z M 339.519531 358.777344 L 288.910156 358.777344 C 288.460938 358.777344 288.109375 358.394531 288.109375 357.902344 L 288.109375 125.066406 C 288.109375 124.8125 288.210938 124.570312 288.382812 124.40625 C 288.539062 124.257812 288.742188 124.183594 288.949219 124.191406 L 339.554688 126.867188 C 339.984375 126.886719 340.320312 127.273438 340.320312 127.738281 L 340.320312 357.902344 C 340.320312 358.394531 339.964844 358.777344 339.519531 358.777344"/><path fill="#5BD1D7" d="M 322.90625 237.128906 C 322.566406 237.128906 322.292969 236.851562 322.292969 236.515625 L 322.292969 142.28125 C 322.292969 141.941406 322.566406 141.667969 322.90625 141.667969 C 323.242188 141.667969 323.515625 141.941406 323.515625 142.28125 L 323.515625 236.515625 C 323.515625 236.851562 323.242188 237.128906 322.90625 237.128906"/><path fill="#5BD1D7" d="M 306.898438 203.546875 C 306.558594 203.546875 306.285156 203.273438 306.285156 202.9375 L 306.285156 175.136719 C 306.285156 174.796875 306.558594 174.523438 306.898438 174.523438 C 307.234375 174.523438 307.507812 174.796875 307.507812 175.136719 L 307.507812 202.9375 C 307.507812 203.273438 307.234375 203.546875 306.898438 203.546875"/><path fill="#5BD1D7" d="M 306.898438 298.875 C 306.558594 298.875 306.285156 298.601562 306.285156 298.261719 L 306.285156 250.289062 C 306.285156 249.953125 306.558594 249.679688 306.898438 249.679688 C 307.234375 249.679688 307.507812 249.953125 307.507812 250.289062 L 307.507812 298.261719 C 307.507812 298.601562 307.234375 298.875 306.898438 298.875"/><path fill="#F2FAFF" d="M 225.269531 358.195312 L 206.480469 358.195312 L 206.480469 184.953125 L 225.167969 179.050781 L 225.269531 358.195312"/><path d="M 207.09375 357.582031 L 224.65625 357.582031 L 224.554688 179.882812 L 207.09375 185.402344 Z M 225.269531 358.804688 L 206.480469 358.804688 C 206.144531 358.804688 205.871094 358.53125 205.871094 358.195312 L 205.871094 184.953125 C 205.871094 184.683594 206.042969 184.449219 206.296875 184.367188 L 224.980469 178.464844 C 225.167969 178.40625 225.371094 178.441406 225.527344 178.554688 C 225.683594 178.671875 225.777344 178.855469 225.777344 179.050781 L 225.878906 358.195312 C 225.878906 358.355469 225.816406 358.511719 225.699219 358.628906 C 225.585938 358.742188 225.429688 358.804688 225.269531 358.804688"/><path fill="#CADDFF" d="M 275.960938 358.195312 L 225.355469 358.195312 C 225.25 358.195312 225.167969 358.105469 225.167969 357.992188 L 225.167969 179.257812 C 225.167969 179.144531 225.253906 179.054688 225.359375 179.058594 L 275.96875 181.109375 C 276.070312 181.113281 276.148438 181.203125 276.148438 181.308594 L 276.148438 357.992188 C 276.148438 358.105469 276.066406 358.195312 275.960938 358.195312"/><path d="M 225.777344 357.582031 L 275.539062 357.582031 L 275.539062 181.703125 L 225.777344 179.683594 Z M 275.960938 358.804688 L 225.355469 358.804688 C 224.914062 358.804688 224.554688 358.441406 224.554688 357.992188 L 224.554688 179.257812 C 224.554688 179.035156 224.644531 178.820312 224.804688 178.664062 C 224.960938 178.515625 225.171875 178.433594 225.386719 178.445312 L 275.992188 180.496094 C 276.425781 180.511719 276.761719 180.871094 276.761719 181.308594 L 276.761719 357.992188 C 276.761719 358.441406 276.402344 358.804688 275.960938 358.804688"/><path fill="#5BD1D7" d="M 250.667969 272.855469 C 250.332031 272.855469 250.058594 272.582031 250.058594 272.242188 L 250.058594 192.890625 C 250.058594 192.550781 250.332031 192.277344 250.667969 192.277344 C 251.007812 192.277344 251.28125 192.550781 251.28125 192.890625 L 251.28125 272.242188 C 251.28125 272.582031 251.007812 272.855469 250.667969 272.855469"/><path fill="#5BD1D7" d="M 237.308594 219.394531 C 236.972656 219.394531 236.695312 219.121094 236.695312 218.785156 L 236.695312 205.257812 C 236.695312 204.917969 236.972656 204.644531 237.308594 204.644531 C 237.644531 204.644531 237.921875 204.917969 237.921875 205.257812 L 237.921875 218.785156 C 237.921875 219.121094 237.644531 219.394531 237.308594 219.394531"/><path fill="#5BD1D7" d="M 237.308594 309.140625 C 236.972656 309.140625 236.695312 308.867188 236.695312 308.527344 L 236.695312 241.152344 C 236.695312 240.816406 236.972656 240.542969 237.308594 240.542969 C 237.644531 240.542969 237.921875 240.816406 237.921875 241.152344 L 237.921875 308.527344 C 237.921875 308.867188 237.644531 309.140625 237.308594 309.140625"/><path fill="#5BD1D7" d="M 264.03125 246.0625 C 263.691406 246.0625 263.417969 245.789062 263.417969 245.449219 L 263.417969 231.921875 C 263.417969 231.585938 263.691406 231.3125 264.03125 231.3125 C 264.367188 231.3125 264.640625 231.585938 264.640625 231.921875 L 264.640625 245.449219 C 264.640625 245.789062 264.367188 246.0625 264.03125 246.0625"/><path fill="#F2FAFF" d="M 162.070312 358.195312 L 143.386719 358.195312 L 143.386719 258.625 L 162.070312 254.527344 L 162.070312 358.195312"/><path d="M 144 357.582031 L 161.460938 357.582031 L 161.460938 255.285156 L 144 259.117188 Z M 162.070312 358.804688 L 143.386719 358.804688 C 143.050781 358.804688 142.777344 358.53125 142.777344 358.195312 L 142.777344 258.625 C 142.777344 258.335938 142.976562 258.089844 143.257812 258.027344 L 161.941406 253.929688 C 162.121094 253.890625 162.3125 253.933594 162.457031 254.050781 C 162.601562 254.164062 162.683594 254.34375 162.683594 254.527344 L 162.683594 358.195312 C 162.683594 358.53125 162.410156 358.804688 162.070312 358.804688"/><path fill="#CADDFF" d="M 213.058594 358.195312 L 162.070312 358.195312 L 162.070312 254.746094 C 162.070312 254.625 162.171875 254.527344 162.289062 254.53125 L 213.058594 256.234375 L 213.058594 358.195312"/><path d="M 162.683594 357.582031 L 212.445312 357.582031 L 212.445312 256.824219 L 162.683594 255.15625 Z M 213.667969 358.804688 L 161.460938 358.804688 L 161.460938 254.746094 C 161.460938 254.523438 161.550781 254.308594 161.710938 254.152344 C 161.871094 254 162.082031 253.910156 162.3125 253.921875 L 213.667969 255.644531 L 213.667969 358.804688"/><path fill="#5BD1D7" d="M 175.625 329.289062 C 175.289062 329.289062 175.011719 329.015625 175.011719 328.675781 L 175.011719 266.914062 C 175.011719 266.578125 175.289062 266.300781 175.625 266.300781 C 175.964844 266.300781 176.234375 266.578125 176.234375 266.914062 L 176.234375 328.675781 C 176.234375 329.015625 175.964844 329.289062 175.625 329.289062"/><path fill="#5BD1D7" d="M 202.347656 336.511719 C 202.007812 336.511719 201.734375 336.238281 201.734375 335.898438 L 201.734375 274.136719 C 201.734375 273.800781 202.007812 273.527344 202.347656 273.527344 C 202.683594 273.527344 202.957031 273.800781 202.957031 274.136719 L 202.957031 335.898438 C 202.957031 336.238281 202.683594 336.511719 202.347656 336.511719"/><path fill="#5BD1D7" d="M 188.984375 312.3125 C 188.648438 312.3125 188.375 312.039062 188.375 311.699219 L 188.375 299.058594 C 188.375 298.722656 188.648438 298.449219 188.984375 298.449219 C 189.324219 298.449219 189.597656 298.722656 189.597656 299.058594 L 189.597656 311.699219 C 189.597656 312.039062 189.324219 312.3125 188.984375 312.3125"/><path fill="#F2FAFF" d="M 99.238281 358.195312 L 80.375 358.195312 L 80.375 308.8125 L 99.058594 305.125 L 99.238281 358.195312"/><path d="M 80.988281 357.582031 L 98.625 357.582031 L 98.453125 305.871094 L 80.988281 309.3125 Z M 99.238281 358.804688 L 80.375 358.804688 C 80.039062 358.804688 79.765625 358.53125 79.765625 358.195312 L 79.765625 308.8125 C 79.765625 308.519531 79.972656 308.265625 80.257812 308.210938 L 98.941406 304.527344 C 99.121094 304.492188 99.308594 304.539062 99.449219 304.652344 C 99.589844 304.769531 99.671875 304.941406 99.671875 305.125 L 99.847656 358.191406 C 99.851562 358.355469 99.785156 358.511719 99.671875 358.628906 C 99.554688 358.742188 99.402344 358.804688 99.238281 358.804688"/><path fill="#CADDFF" d="M 149.867188 358.195312 L 99.238281 358.195312 C 99.140625 358.195312 99.058594 358.117188 99.058594 358.015625 L 99.058594 305.308594 C 99.058594 305.207031 99.140625 305.128906 99.242188 305.128906 L 149.871094 305.957031 C 149.964844 305.957031 150.042969 306.035156 150.042969 306.132812 L 150.042969 358.015625 C 150.042969 358.117188 149.964844 358.195312 149.867188 358.195312"/><path d="M 99.671875 357.582031 L 149.433594 357.582031 L 149.433594 306.558594 L 99.671875 305.746094 Z M 149.867188 358.804688 L 99.238281 358.804688 C 98.804688 358.804688 98.449219 358.453125 98.449219 358.015625 L 98.449219 305.308594 C 98.449219 305.09375 98.53125 304.894531 98.683594 304.742188 C 98.835938 304.59375 99.039062 304.519531 99.25 304.519531 L 149.878906 305.34375 C 150.308594 305.351562 150.65625 305.703125 150.65625 306.132812 L 150.65625 358.015625 C 150.65625 358.453125 150.300781 358.804688 149.867188 358.804688"/><path fill="#5BD1D7" d="M 134.636719 346.261719 C 134.296875 346.261719 134.023438 345.988281 134.023438 345.652344 L 134.023438 314.230469 C 134.023438 313.890625 134.296875 313.617188 134.636719 313.617188 C 134.972656 313.617188 135.246094 313.890625 135.246094 314.230469 L 135.246094 345.652344 C 135.246094 345.988281 134.972656 346.261719 134.636719 346.261719"/><path fill="#5BD1D7" d="M 118.628906 335.066406 C 118.289062 335.066406 118.015625 334.792969 118.015625 334.457031 L 118.015625 325.183594 C 118.015625 324.847656 118.289062 324.574219 118.628906 324.574219 C 118.964844 324.574219 119.238281 324.847656 119.238281 325.183594 L 119.238281 334.457031 C 119.238281 334.792969 118.964844 335.066406 118.628906 335.066406"/><path fill="#F2FAFF" d="M 36.378906 358.195312 L 17.515625 358.195312 L 17.515625 332.332031 L 36.199219 329.179688 L 36.378906 358.195312"/><path d="M 18.125 357.582031 L 35.761719 357.582031 L 35.59375 329.902344 L 18.125 332.847656 Z M 36.378906 358.804688 L 17.515625 358.804688 C 17.175781 358.804688 16.902344 358.53125 16.902344 358.195312 L 16.902344 332.332031 C 16.902344 332.035156 17.121094 331.777344 17.414062 331.730469 L 36.097656 328.578125 C 36.273438 328.542969 36.457031 328.59375 36.59375 328.710938 C 36.730469 328.828125 36.808594 328.996094 36.8125 329.175781 L 36.988281 358.191406 C 36.988281 358.355469 36.925781 358.511719 36.8125 358.625 C 36.695312 358.738281 36.539062 358.804688 36.378906 358.804688"/><path fill="#CADDFF" d="M 87.007812 358.195312 L 36.378906 358.195312 C 36.28125 358.195312 36.199219 358.148438 36.199219 358.097656 L 36.199219 329.277344 C 36.199219 329.222656 36.28125 329.179688 36.378906 329.179688 L 87.007812 329.632812 C 87.105469 329.632812 87.183594 329.675781 87.183594 329.730469 L 87.183594 358.097656 C 87.183594 358.148438 87.105469 358.195312 87.007812 358.195312"/><path d="M 36.8125 357.582031 L 86.574219 357.582031 L 86.574219 330.238281 L 36.8125 329.796875 Z M 87.007812 358.804688 L 36.378906 358.804688 C 35.933594 358.804688 35.589844 358.496094 35.589844 358.097656 L 35.589844 329.277344 C 35.589844 329.097656 35.660156 328.925781 35.792969 328.796875 C 35.9375 328.652344 36.15625 328.570312 36.386719 328.570312 L 87.015625 329.019531 C 87.460938 329.023438 87.796875 329.328125 87.796875 329.730469 L 87.796875 358.097656 C 87.796875 358.496094 87.449219 358.804688 87.007812 358.804688"/><path fill="#5BD1D7" d="M 71.773438 351.949219 C 71.4375 351.949219 71.164062 351.675781 71.164062 351.335938 L 71.164062 334.15625 C 71.164062 333.816406 71.4375 333.542969 71.773438 333.542969 C 72.113281 333.542969 72.386719 333.816406 72.386719 334.15625 L 72.386719 351.335938 C 72.386719 351.675781 72.113281 351.949219 71.773438 351.949219"/><path fill="#5BD1D7" d="M 55.765625 345.828125 C 55.429688 345.828125 55.15625 345.550781 55.15625 345.214844 L 55.15625 340.148438 C 55.15625 339.808594 55.429688 339.535156 55.765625 339.535156 C 56.105469 339.535156 56.378906 339.808594 56.378906 340.148438 L 56.378906 345.214844 C 56.378906 345.550781 56.105469 345.828125 55.765625 345.828125"/><path fill="#F2FAFF" d="M 91.949219 278.453125 L 90.101562 294.84375 L 97.070312 297.746094 L 99.636719 279.878906 L 91.949219 278.453125"/><path d="M 90.761719 294.453125 L 96.578125 296.878906 L 98.949219 280.371094 L 92.484375 279.175781 Z M 97.070312 298.355469 C 96.992188 298.355469 96.910156 298.339844 96.835938 298.308594 L 89.867188 295.410156 C 89.617188 295.300781 89.464844 295.042969 89.496094 294.773438 L 91.34375 278.386719 C 91.363281 278.21875 91.449219 278.0625 91.585938 277.960938 C 91.722656 277.863281 91.894531 277.820312 92.0625 277.851562 L 99.75 279.277344 C 100.070312 279.335938 100.289062 279.640625 100.242188 279.964844 L 97.675781 297.832031 C 97.648438 298.019531 97.539062 298.183594 97.375 298.277344 C 97.28125 298.328125 97.175781 298.355469 97.070312 298.355469"/><path fill="#CADDFF" d="M 88.480469 293.296875 C 88.261719 294.847656 87.90625 297.730469 87.878906 300.316406 C 87.859375 301.9375 89.078125 303.304688 90.6875 303.511719 C 95.238281 304.097656 105.554688 304.734375 114.347656 303.9375 C 114.949219 303.882812 116.011719 303.445312 116.308594 301.941406 C 117.304688 296.894531 108.527344 295.660156 98.902344 291.996094 C 98.527344 291.855469 98.097656 291.9375 97.808594 292.222656 L 96.773438 293.226562 C 95.734375 294.230469 94.195312 294.515625 92.863281 293.949219 L 89.707031 292.601562 C 89.171875 292.371094 88.5625 292.71875 88.480469 293.296875"/><path d="M 89.085938 293.382812 C 88.875 294.871094 88.519531 297.753906 88.488281 300.324219 C 88.472656 301.625 89.453125 302.738281 90.765625 302.90625 C 95.457031 303.507812 105.59375 304.121094 114.292969 303.328125 C 114.480469 303.3125 115.445312 303.15625 115.710938 301.824219 C 116.335938 298.644531 112.339844 297.167969 105.222656 294.832031 C 103.125 294.144531 100.953125 293.429688 98.683594 292.570312 C 98.53125 292.511719 98.351562 292.546875 98.234375 292.660156 L 97.195312 293.664062 C 95.980469 294.84375 94.183594 295.175781 92.625 294.511719 L 89.46875 293.164062 C 89.359375 293.117188 89.269531 293.152344 89.222656 293.179688 C 89.179688 293.203125 89.101562 293.261719 89.085938 293.382812 Z M 105.1875 304.925781 C 99.265625 304.925781 93.738281 304.519531 90.609375 304.121094 C 88.679688 303.871094 87.246094 302.234375 87.265625 300.308594 C 87.296875 297.671875 87.660156 294.730469 87.875 293.207031 C 87.941406 292.742188 88.214844 292.34375 88.625 292.113281 C 89.03125 291.882812 89.515625 291.855469 89.945312 292.039062 L 93.105469 293.386719 C 94.210938 293.859375 95.484375 293.621094 96.347656 292.785156 L 97.382812 291.78125 C 97.839844 291.335938 98.523438 291.199219 99.121094 291.425781 C 101.363281 292.277344 103.515625 292.988281 105.601562 293.671875 C 112.402344 295.902344 117.773438 297.664062 116.910156 302.0625 C 116.574219 303.757812 115.347656 304.460938 114.402344 304.546875 C 111.410156 304.820312 108.246094 304.925781 105.1875 304.925781"/><path fill="#F2FAFF" d="M 87.882812 299.925781 C 87.882812 299.925781 87.878906 300.1875 87.878906 300.316406 C 87.859375 301.9375 89.078125 303.304688 90.6875 303.511719 C 95.238281 304.097656 105.554688 304.734375 114.347656 303.9375 C 114.949219 303.882812 116.011719 303.445312 116.308594 301.941406 C 116.398438 301.480469 116.34375 300.652344 116.34375 300.652344 L 115.71875 300.679688 C 106.835938 301.121094 97.933594 300.90625 89.082031 300.042969 L 87.882812 299.925781"/><path d="M 88.5 300.601562 C 88.617188 301.78125 89.546875 302.75 90.765625 302.90625 C 95.457031 303.507812 105.59375 304.121094 114.292969 303.328125 C 114.480469 303.3125 115.445312 303.15625 115.710938 301.824219 C 115.738281 301.6875 115.746094 301.488281 115.75 301.292969 C 106.867188 301.730469 97.875 301.515625 89.023438 300.652344 Z M 105.1875 304.925781 C 99.265625 304.925781 93.738281 304.519531 90.609375 304.121094 C 88.679688 303.871094 87.246094 302.234375 87.265625 300.308594 L 87.273438 299.914062 C 87.277344 299.746094 87.351562 299.582031 87.476562 299.46875 C 87.605469 299.355469 87.773438 299.304688 87.945312 299.316406 L 89.144531 299.433594 C 97.933594 300.292969 106.867188 300.507812 115.691406 300.070312 L 116.3125 300.039062 C 116.644531 300.015625 116.929688 300.277344 116.953125 300.609375 C 116.960938 300.703125 117.011719 301.535156 116.910156 302.0625 C 116.574219 303.757812 115.347656 304.460938 114.402344 304.546875 C 111.410156 304.820312 108.246094 304.925781 105.1875 304.925781"/><path d="M 101.109375 298.058594 C 100.953125 298.058594 100.796875 298 100.679688 297.878906 C 100.4375 297.640625 100.4375 297.253906 100.679688 297.015625 L 104.054688 293.636719 C 104.292969 293.398438 104.679688 293.398438 104.917969 293.636719 C 105.15625 293.875 105.15625 294.261719 104.917969 294.5 L 101.542969 297.878906 C 101.421875 298 101.265625 298.058594 101.109375 298.058594"/><path d="M 104.425781 298.410156 C 104.273438 298.410156 104.121094 298.355469 104.003906 298.238281 C 103.761719 298.003906 103.753906 297.617188 103.988281 297.375 L 106.683594 294.570312 C 106.917969 294.328125 107.304688 294.320312 107.546875 294.554688 C 107.792969 294.789062 107.800781 295.175781 107.566406 295.417969 L 104.867188 298.222656 C 104.746094 298.347656 104.585938 298.410156 104.425781 298.410156"/><path d="M 117.257812 170.445312 C 117.257812 170.445312 113.015625 172.910156 111.359375 187.347656 C 109.707031 201.789062 110.257812 218.8125 98.726562 235.691406 C 89.519531 249.171875 90.328125 271.925781 88.992188 286.839844 C 88.925781 287.558594 89.480469 288.183594 90.203125 288.207031 L 99.03125 288.507812 C 99.59375 288.53125 100.097656 288.175781 100.269531 287.640625 C 101.847656 282.753906 109.695312 259.175781 118.507812 245.507812 C 127.824219 231.058594 139.148438 193.558594 139.148438 193.558594 C 139.148438 193.558594 137.046875 184.078125 136.753906 174.996094 C 136.464844 165.910156 117.257812 170.445312 117.257812 170.445312"/><path fill="#F2FAFF" d="M 169.246094 229.839844 L 165.523438 245.90625 L 172.109375 249.589844 L 176.71875 232.136719 L 169.246094 229.839844"/><path d="M 166.222656 245.597656 L 171.71875 248.671875 L 175.976562 232.550781 L 169.691406 230.617188 Z M 172.109375 250.203125 C 172.007812 250.203125 171.902344 250.175781 171.8125 250.125 L 165.222656 246.4375 C 164.988281 246.304688 164.867188 246.03125 164.925781 245.765625 L 168.648438 229.699219 C 168.6875 229.535156 168.792969 229.394531 168.9375 229.308594 C 169.085938 229.222656 169.261719 229.203125 169.425781 229.253906 L 176.898438 231.554688 C 177.210938 231.648438 177.394531 231.976562 177.308594 232.292969 L 172.703125 249.746094 C 172.652344 249.929688 172.523438 250.082031 172.347656 250.15625 C 172.273438 250.1875 172.191406 250.203125 172.109375 250.203125"/><path fill="#CADDFF" d="M 164.730469 244.957031 C 164.511719 246.511719 163.117188 249.457031 163.085938 252.039062 C 163.066406 253.660156 164.285156 255.03125 165.894531 255.234375 C 170.445312 255.820312 181.808594 256.398438 190.597656 255.597656 C 191.199219 255.542969 192.261719 255.105469 192.558594 253.601562 C 193.554688 248.554688 184.777344 247.320312 175.152344 243.65625 C 174.777344 243.515625 174.351562 243.597656 174.058594 243.882812 L 173.023438 244.886719 C 171.984375 245.890625 170.445312 246.175781 169.113281 245.609375 L 165.957031 244.261719 C 165.421875 244.03125 164.8125 244.378906 164.730469 244.957031"/><path d="M 165.335938 245.042969 C 165.25 245.667969 165 246.449219 164.714844 247.347656 C 164.269531 248.757812 163.714844 250.507812 163.699219 252.046875 C 163.683594 253.351562 164.660156 254.460938 165.972656 254.628906 C 170.09375 255.160156 181.53125 255.808594 190.542969 254.988281 C 190.734375 254.972656 191.695312 254.820312 191.960938 253.484375 C 192.585938 250.304688 188.589844 248.828125 181.472656 246.492188 C 179.371094 245.804688 177.203125 245.089844 174.9375 244.230469 C 174.78125 244.171875 174.601562 244.207031 174.484375 244.320312 L 173.445312 245.324219 C 172.230469 246.503906 170.433594 246.835938 168.875 246.171875 L 165.71875 244.824219 C 165.609375 244.777344 165.519531 244.8125 165.472656 244.839844 C 165.429688 244.863281 165.351562 244.921875 165.335938 245.042969 Z M 180.746094 256.597656 C 174.792969 256.597656 169.007812 256.25 165.816406 255.84375 C 163.890625 255.59375 162.453125 253.957031 162.472656 252.03125 C 162.496094 250.3125 163.078125 248.464844 163.550781 246.980469 C 163.820312 246.128906 164.050781 245.394531 164.125 244.871094 C 164.191406 244.402344 164.464844 244.003906 164.875 243.773438 C 165.28125 243.542969 165.765625 243.515625 166.195312 243.699219 L 169.351562 245.046875 C 170.460938 245.519531 171.734375 245.28125 172.597656 244.445312 L 173.632812 243.441406 C 174.09375 242.996094 174.773438 242.859375 175.371094 243.085938 C 177.609375 243.941406 179.765625 244.648438 181.851562 245.332031 C 188.652344 247.5625 194.023438 249.324219 193.160156 253.722656 C 192.824219 255.417969 191.597656 256.121094 190.652344 256.207031 C 187.597656 256.484375 184.144531 256.597656 180.746094 256.597656"/><path fill="#F2FAFF" d="M 163.332031 251.542969 C 163.332031 251.542969 163.328125 251.804688 163.328125 251.929688 C 163.308594 253.554688 164.527344 254.921875 166.136719 255.128906 C 170.6875 255.710938 181.808594 256.398438 190.597656 255.597656 C 191.199219 255.542969 192.261719 255.105469 192.558594 253.601562 C 192.648438 253.140625 192.59375 252.3125 192.59375 252.3125 L 191.972656 252.34375 C 183.089844 252.78125 174.183594 252.566406 165.332031 251.703125 L 163.332031 251.542969"/><path d="M 163.949219 252.207031 C 164.058594 253.394531 164.992188 254.367188 166.214844 254.523438 C 170.195312 255.035156 181.382812 255.820312 190.542969 254.988281 C 190.734375 254.972656 191.695312 254.820312 191.960938 253.484375 C 191.984375 253.347656 191.996094 253.148438 192 252.953125 C 183.117188 253.390625 174.125 253.175781 165.273438 252.3125 Z M 181.589844 256.574219 C 174.992188 256.574219 168.816406 256.089844 166.058594 255.734375 C 164.128906 255.488281 162.691406 253.847656 162.714844 251.921875 L 162.722656 251.53125 C 162.726562 251.363281 162.800781 251.203125 162.921875 251.089844 C 163.046875 250.976562 163.214844 250.921875 163.382812 250.933594 L 165.382812 251.09375 C 174.183594 251.953125 183.117188 252.167969 191.941406 251.730469 L 192.5625 251.699219 C 192.898438 251.679688 193.179688 251.9375 193.203125 252.269531 C 193.210938 252.363281 193.261719 253.195312 193.160156 253.722656 C 192.824219 255.417969 191.597656 256.121094 190.652344 256.207031 C 187.738281 256.472656 184.617188 256.574219 181.589844 256.574219"/><path d="M 177.359375 249.71875 C 177.203125 249.71875 177.046875 249.660156 176.925781 249.539062 C 176.6875 249.300781 176.6875 248.914062 176.925781 248.675781 L 180.304688 245.296875 C 180.542969 245.058594 180.929688 245.058594 181.167969 245.296875 C 181.40625 245.535156 181.40625 245.921875 181.167969 246.160156 L 177.792969 249.539062 C 177.671875 249.660156 177.515625 249.71875 177.359375 249.71875"/><path d="M 180.679688 250.070312 C 180.523438 250.070312 180.371094 250.015625 180.253906 249.898438 C 180.011719 249.664062 180.003906 249.277344 180.238281 249.035156 L 182.933594 246.230469 C 183.167969 245.988281 183.554688 245.980469 183.796875 246.214844 C 184.042969 246.449219 184.050781 246.835938 183.816406 247.078125 L 181.117188 249.882812 C 180.996094 250.007812 180.835938 250.070312 180.679688 250.070312"/><path d="M 134.265625 196.105469 C 134.265625 196.105469 154.097656 194.546875 176.234375 182.65625 C 176.886719 182.304688 177.3125 183.386719 176.914062 184.015625 C 175.800781 185.777344 175.207031 188.421875 173.546875 192.933594 C 171.5 198.488281 167.179688 227.230469 165.753906 236.175781 C 165.625 236.984375 166.234375 237.71875 167.050781 237.746094 L 175.5625 238.023438 C 176.101562 238.039062 176.597656 237.738281 176.832031 237.253906 C 179.902344 230.855469 199.953125 180.488281 199.1875 171.109375 C 198.363281 160.96875 186.785156 161.644531 181.960938 161.335938 C 176.964844 161.015625 131.683594 169.480469 131.683594 169.480469 L 134.265625 196.105469"/><path fill="#F2FAFF" d="M 73.9375 181.292969 C 74.621094 180.476562 75.507812 179.519531 76.273438 178.765625 C 77.257812 177.789062 80.550781 171.382812 80.550781 171.382812 L 86.304688 173.011719 C 86.304688 173.011719 83.617188 177.722656 84.261719 180.066406 C 84.863281 182.25 85.339844 186.863281 82.140625 190.21875 C 81.777344 190.605469 80.972656 190.707031 80.695312 190.640625 C 79.859375 190.445312 79.84375 189.289062 80.25 188.53125 L 81.40625 186.40625 C 81.507812 186.21875 81.351562 185.996094 81.140625 186.027344 C 80.277344 186.148438 78.378906 186.703125 76.390625 189.15625 C 74.863281 191.042969 71.832031 195.253906 70.8125 194.554688 C 68.992188 193.308594 70.183594 185.769531 73.9375 181.292969"/><path d="M 74.402344 181.6875 C 71.6875 184.925781 70.265625 190.042969 70.644531 192.789062 C 70.726562 193.390625 70.894531 193.828125 71.113281 194.019531 C 71.886719 193.894531 74.15625 191.003906 75.136719 189.753906 C 75.421875 189.390625 75.6875 189.054688 75.917969 188.769531 C 78.007812 186.191406 80.035156 185.566406 81.058594 185.421875 C 81.386719 185.375 81.703125 185.515625 81.894531 185.785156 C 82.082031 186.058594 82.101562 186.40625 81.941406 186.699219 L 80.789062 188.824219 C 80.601562 189.167969 80.546875 189.636719 80.660156 189.894531 C 80.707031 189.996094 80.761719 190.027344 80.832031 190.042969 C 81.003906 190.070312 81.527344 189.976562 81.699219 189.796875 C 85.101562 186.222656 83.941406 181.199219 83.671875 180.226562 C 83.109375 178.191406 84.644531 174.859375 85.40625 173.394531 L 80.863281 172.105469 C 80.058594 173.660156 77.605469 178.308594 76.703125 179.199219 C 75.941406 179.949219 75.0625 180.902344 74.402344 181.6875 Z M 71.15625 194.050781 L 71.164062 194.050781 Z M 71.070312 195.25 C 70.855469 195.25 70.65625 195.1875 70.46875 195.0625 C 69.921875 194.6875 69.570312 193.976562 69.433594 192.957031 C 69.019531 189.960938 70.449219 184.5 73.46875 180.902344 C 74.160156 180.078125 75.046875 179.117188 75.84375 178.328125 C 76.511719 177.667969 78.75 173.546875 80.007812 171.101562 C 80.140625 170.84375 80.4375 170.714844 80.71875 170.792969 L 86.472656 172.425781 C 86.652344 172.476562 86.800781 172.609375 86.871094 172.78125 C 86.941406 172.957031 86.929688 173.152344 86.835938 173.316406 C 86.125 174.566406 84.378906 178.183594 84.851562 179.902344 C 85.714844 183.035156 85.574219 187.5 82.585938 190.640625 C 82.03125 191.222656 80.984375 191.335938 80.554688 191.234375 C 80.097656 191.128906 79.742188 190.832031 79.546875 190.394531 C 79.269531 189.78125 79.335938 188.9375 79.714844 188.242188 L 80.492188 186.808594 C 79.613281 187.101562 78.269531 187.8125 76.867188 189.539062 C 76.640625 189.820312 76.378906 190.152344 76.097656 190.507812 C 73.898438 193.3125 72.273438 195.25 71.070312 195.25"/><path fill="#43727A" d="M 211.914062 108.925781 L 208.195312 102.652344 C 207.582031 101.621094 205.65625 101.308594 204.695312 102.023438 C 183.675781 117.695312 161.3125 111.304688 157.859375 110.480469 C 149.289062 108.441406 144.96875 108.128906 138.203125 107.714844 C 128.304688 107.113281 114.058594 112.839844 104.476562 122.429688 C 96.851562 130.054688 83.84375 154.789062 77.949219 171.976562 C 77.703125 172.695312 78.019531 173.488281 78.699219 173.84375 L 84.613281 176.914062 C 85.363281 177.304688 86.285156 177.019531 86.683594 176.273438 C 89.695312 170.597656 102.738281 147.0625 116.394531 139.292969 C 117.394531 138.722656 118.90625 139.324219 118.847656 140.480469 C 118.667969 144.097656 116.421875 157.503906 115.738281 169.929688 C 115.648438 171.566406 116.78125 173.023438 118.394531 173.320312 L 124.367188 174.429688 C 134.785156 176.855469 144.550781 174.152344 148.855469 172.617188 C 150.171875 172.144531 150.808594 170.875 151.011719 169.488281 C 151.339844 167.191406 155.964844 148.773438 164.394531 136.589844 C 165.460938 135.054688 167.066406 133.996094 168.929688 133.886719 C 176.449219 133.445312 197.847656 130.441406 211.820312 110.855469 C 212.226562 110.285156 212.269531 109.527344 211.914062 108.925781"/><path fill="#F2FAFF" d="M 206.792969 104.539062 C 206.710938 104.074219 206.875 103.597656 207.238281 103.292969 C 207.714844 102.886719 208.515625 102.199219 209.683594 101.175781 C 211.738281 99.378906 214.3125 95.785156 216.554688 94.710938 C 218.796875 93.632812 226.925781 90.453125 228.230469 91.128906 C 229.527344 91.804688 228.882812 93.332031 227.035156 94.21875 C 225.191406 95.105469 222.789062 96.015625 222.789062 96.015625 C 222.789062 96.015625 224.132812 95.9375 225.125 97.492188 C 226.113281 99.042969 224.742188 99.671875 225.320312 100.441406 C 226.0625 101.421875 225.84375 102.566406 225.257812 103.066406 C 223.914062 104.214844 222.285156 101.953125 221.074219 104.292969 C 220.230469 105.914062 218.238281 106.972656 214.199219 107.746094 C 213.113281 107.953125 212.082031 108.367188 211.144531 108.953125 C 210.757812 109.199219 210.269531 109.214844 209.871094 108.992188 C 208.90625 108.449219 207.230469 107.148438 206.792969 104.539062"/><path d="M 227.636719 91.625 C 225.910156 91.625 219.472656 93.984375 216.820312 95.257812 C 215.5 95.894531 213.992188 97.539062 212.539062 99.128906 C 211.675781 100.070312 210.859375 100.960938 210.089844 101.636719 C 208.917969 102.660156 208.113281 103.351562 207.632812 103.757812 C 207.441406 103.921875 207.351562 104.175781 207.394531 104.4375 C 207.792969 106.796875 209.304688 107.96875 210.171875 108.457031 C 210.371094 108.570312 210.621094 108.5625 210.824219 108.4375 C 211.84375 107.796875 212.941406 107.363281 214.082031 107.144531 C 217.835938 106.429688 219.761719 105.488281 220.535156 104.007812 C 221.441406 102.253906 222.722656 102.519531 223.566406 102.695312 C 224.191406 102.828125 224.535156 102.882812 224.863281 102.601562 C 225.199219 102.3125 225.378906 101.527344 224.835938 100.804688 C 224.386719 100.214844 224.597656 99.628906 224.738281 99.242188 C 224.894531 98.804688 225.019531 98.457031 224.609375 97.820312 C 223.832031 96.601562 222.832031 96.625 222.824219 96.625 C 222.523438 96.640625 222.253906 96.4375 222.191406 96.140625 C 222.128906 95.847656 222.289062 95.546875 222.570312 95.445312 C 222.597656 95.433594 224.972656 94.53125 226.773438 93.664062 C 227.8125 93.164062 228.296875 92.515625 228.300781 92.121094 C 228.300781 92.046875 228.304688 91.855469 227.949219 91.671875 C 227.875 91.640625 227.769531 91.625 227.636719 91.625 Z M 210.476562 109.757812 C 210.160156 109.757812 209.851562 109.679688 209.570312 109.519531 C 208.511719 108.925781 206.671875 107.5 206.191406 104.640625 C 206.074219 103.960938 206.324219 103.265625 206.84375 102.828125 C 207.320312 102.421875 208.121094 101.734375 209.28125 100.714844 C 210.003906 100.085938 210.796875 99.21875 211.636719 98.300781 C 213.167969 96.625 214.757812 94.894531 216.292969 94.15625 C 216.390625 94.109375 226.597656 89.59375 228.511719 90.585938 C 229.164062 90.921875 229.53125 91.492188 229.523438 92.140625 C 229.507812 93.109375 228.65625 94.113281 227.304688 94.769531 C 226.390625 95.207031 225.355469 95.644531 224.53125 95.980469 C 224.90625 96.242188 225.292969 96.617188 225.640625 97.160156 C 226.371094 98.304688 226.082031 99.117188 225.886719 99.65625 C 225.765625 100.003906 225.777344 100.023438 225.8125 100.070312 C 226.757812 101.320312 226.464844 102.84375 225.652344 103.535156 C 224.855469 104.214844 223.964844 104.027344 223.316406 103.894531 C 222.507812 103.722656 222.101562 103.640625 221.617188 104.570312 C 220.65625 106.421875 218.472656 107.550781 214.3125 108.34375 C 213.320312 108.535156 212.363281 108.914062 211.46875 109.472656 C 211.164062 109.664062 210.820312 109.757812 210.476562 109.757812"/><path fill="#F2FAFF" d="M 152.453125 90.714844 L 141.332031 109.152344 C 141.179688 109.363281 139.546875 109.304688 137.707031 109.492188 C 136.847656 109.578125 135.949219 109.710938 135.203125 109.832031 C 134.589844 109.929688 134.417969 110.726562 134.933594 111.070312 L 136.925781 112.390625 C 141.097656 115.15625 146.054688 116.585938 151.046875 116.246094 C 152.4375 116.152344 153.765625 115.929688 154.949219 115.558594 L 159.207031 114.21875 C 159.847656 114.019531 159.84375 113.113281 159.203125 112.917969 L 153.777344 111.273438 L 158.355469 101.550781 L 152.453125 90.714844"/><path d="M 152.425781 91.941406 L 141.855469 109.46875 C 141.847656 109.480469 141.835938 109.496094 141.828125 109.507812 C 141.566406 109.871094 141.121094 109.894531 139.792969 109.960938 C 139.21875 109.988281 138.5 110.023438 137.769531 110.097656 C 137.050781 110.171875 136.21875 110.285156 135.300781 110.433594 C 135.285156 110.4375 135.253906 110.441406 135.242188 110.488281 C 135.234375 110.535156 135.257812 110.550781 135.273438 110.558594 L 137.265625 111.878906 C 141.402344 114.621094 146.285156 115.953125 151.007812 115.632812 C 152.402344 115.539062 153.667969 115.316406 154.769531 114.976562 L 159.027344 113.632812 C 159.046875 113.628906 159.074219 113.621094 159.074219 113.566406 C 159.074219 113.515625 159.046875 113.507812 159.023438 113.5 L 153.601562 111.855469 C 153.433594 111.804688 153.292969 111.683594 153.222656 111.519531 C 153.148438 111.359375 153.152344 111.171875 153.226562 111.011719 L 157.671875 101.570312 Z M 149.621094 116.90625 C 145.101562 116.90625 140.523438 115.507812 136.589844 112.898438 L 134.597656 111.578125 C 134.152344 111.285156 133.9375 110.753906 134.050781 110.230469 C 134.160156 109.707031 134.578125 109.3125 135.105469 109.226562 C 136.046875 109.074219 136.902344 108.960938 137.644531 108.882812 C 138.410156 108.804688 139.144531 108.769531 139.730469 108.738281 C 140.179688 108.714844 140.671875 108.691406 140.917969 108.65625 L 151.929688 90.398438 C 152.042969 90.210938 152.246094 90.101562 152.464844 90.105469 C 152.683594 90.109375 152.886719 90.230469 152.988281 90.421875 L 158.894531 101.257812 C 158.988281 101.429688 158.996094 101.636719 158.910156 101.8125 L 154.632812 110.894531 L 159.378906 112.332031 C 159.925781 112.496094 160.292969 112.992188 160.296875 113.5625 C 160.300781 114.128906 159.9375 114.628906 159.390625 114.800781 L 155.132812 116.140625 C 153.9375 116.515625 152.578125 116.753906 151.089844 116.855469 C 150.601562 116.886719 150.113281 116.90625 149.621094 116.90625"/><path fill="#F2FAFF" d="M 157.417969 101.929688 C 158 102.007812 158.601562 102.03125 159.21875 102 L 160.316406 101.941406 C 160.316406 101.941406 166.613281 101.105469 167.625 99.542969 C 168.632812 97.984375 166.5 92.3125 166.5 92.3125 C 167.472656 91.554688 167.691406 90.597656 167.480469 90.277344 C 167.273438 89.953125 165.871094 89.460938 165.300781 89.042969 C 164.835938 88.703125 163.796875 85.988281 163.351562 84.824219 C 163.351562 84.824219 162.523438 80.222656 155.144531 80.820312 C 138.234375 82.1875 150.394531 97.84375 150.394531 97.84375 C 150.65625 98.144531 150.925781 98.4375 151.203125 98.714844 L 157.417969 101.929688"/><path d="M 158.6875 102.625 C 157.734375 102.625 156.796875 102.5 155.894531 102.246094 C 155.570312 102.15625 155.378906 101.820312 155.46875 101.492188 C 155.558594 101.167969 155.894531 100.976562 156.222656 101.066406 C 157.175781 101.335938 158.175781 101.441406 159.1875 101.390625 L 160.257812 101.335938 C 162.757812 101 166.519531 100.121094 167.109375 99.214844 C 167.6875 98.316406 166.765625 94.765625 165.925781 92.527344 C 165.832031 92.28125 165.910156 91.996094 166.121094 91.832031 C 166.75 91.34375 166.933594 90.816406 166.941406 90.609375 C 166.777344 90.496094 166.390625 90.3125 166.121094 90.183594 C 165.6875 89.976562 165.238281 89.761719 164.933594 89.539062 C 164.484375 89.207031 163.921875 88.03125 162.777344 85.042969 C 162.765625 85.007812 162.753906 84.972656 162.746094 84.933594 C 162.714844 84.773438 161.886719 80.886719 155.195312 81.429688 C 151.085938 81.761719 148.46875 82.933594 147.421875 84.90625 C 145.644531 88.257812 148.511719 93.332031 150.226562 96.363281 L 150.378906 96.636719 C 150.542969 96.929688 150.441406 97.304688 150.144531 97.46875 C 149.851562 97.636719 149.480469 97.53125 149.3125 97.238281 L 149.160156 96.964844 C 147.324219 93.714844 144.25 88.277344 146.339844 84.332031 C 147.597656 81.96875 150.542969 80.582031 155.097656 80.210938 C 162.414062 79.621094 163.777344 84.011719 163.933594 84.644531 C 165.054688 87.570312 165.5 88.394531 165.679688 88.570312 C 165.871094 88.707031 166.285156 88.90625 166.652344 89.082031 C 167.375 89.429688 167.792969 89.640625 167.992188 89.945312 C 168.363281 90.515625 168.148438 91.597656 167.214844 92.5 C 167.769531 94.046875 169.144531 98.3125 168.136719 99.878906 C 167.027344 101.589844 161.496094 102.402344 160.398438 102.546875 C 160.378906 102.550781 160.363281 102.550781 160.347656 102.554688 L 159.25 102.609375 C 159.0625 102.621094 158.871094 102.625 158.6875 102.625"/><path d="M 151.691406 78.820312 C 153.539062 78.457031 155.636719 78.742188 156.535156 78.4375 C 157.984375 77.941406 157.949219 76.273438 159.992188 76.109375 C 161.789062 75.964844 163.460938 76.300781 164.367188 77.675781 C 164.515625 77.90625 164.648438 78.160156 164.753906 78.453125 C 166.167969 82.339844 164.214844 84.214844 163.347656 84.824219 C 163.347656 84.824219 157.875 87.457031 156.929688 88.210938 C 156.042969 88.917969 155.003906 90.601562 155.570312 93.039062 C 155.644531 93.355469 155.492188 93.675781 155.210938 93.835938 C 154.882812 94.019531 154.460938 93.929688 154.246094 93.617188 C 153.570312 92.636719 152.078125 90.734375 150.976562 91.175781 C 149.6875 91.6875 149.25 94.925781 151.617188 95.726562 C 152.34375 95.96875 152.585938 96.925781 152.058594 97.488281 C 151.625 97.957031 150.957031 98.28125 149.953125 98.027344 C 149.953125 98.027344 144.0625 93.824219 143.367188 88.289062 C 142.667969 82.753906 149.238281 79.300781 151.691406 78.820312"/><path d="M 205.078125 39.664062 L 205.082031 39.664062 Z M 207.265625 39.136719 C 206.617188 39.136719 205.980469 39.441406 205.582031 40.011719 C 205.265625 40.464844 205.148438 41.007812 205.246094 41.550781 C 205.34375 42.089844 205.644531 42.558594 206.09375 42.871094 C 207.019531 43.515625 208.300781 43.289062 208.949219 42.359375 C 209.261719 41.910156 209.382812 41.363281 209.285156 40.824219 C 209.1875 40.285156 208.886719 39.816406 208.4375 39.5 C 208.082031 39.253906 207.671875 39.136719 207.265625 39.136719 Z M 207.257812 44.464844 C 206.59375 44.464844 205.949219 44.261719 205.394531 43.875 C 204.675781 43.375 204.195312 42.625 204.042969 41.765625 C 203.886719 40.902344 204.078125 40.03125 204.578125 39.316406 C 205.605469 37.832031 207.652344 37.464844 209.136719 38.5 C 209.851562 39 210.335938 39.746094 210.488281 40.609375 C 210.644531 41.472656 210.453125 42.339844 209.953125 43.058594 C 209.453125 43.777344 208.703125 44.257812 207.84375 44.410156 C 207.648438 44.449219 207.453125 44.464844 207.257812 44.464844"/><path d="M 227.027344 47.890625 C 226.855469 47.890625 226.6875 47.816406 226.566406 47.675781 C 226.34375 47.417969 226.375 47.03125 226.632812 46.8125 L 228.605469 45.128906 C 228.863281 44.910156 229.25 44.941406 229.46875 45.199219 C 229.6875 45.457031 229.65625 45.84375 229.398438 46.0625 L 227.425781 47.746094 C 227.308594 47.84375 227.167969 47.890625 227.027344 47.890625"/><path d="M 220.792969 53.207031 C 220.621094 53.207031 220.449219 53.132812 220.328125 52.992188 C 220.109375 52.734375 220.136719 52.351562 220.398438 52.128906 L 222.371094 50.449219 C 222.628906 50.230469 223.011719 50.257812 223.230469 50.515625 C 223.449219 50.773438 223.421875 51.160156 223.164062 51.378906 L 221.1875 53.0625 C 221.074219 53.160156 220.933594 53.207031 220.792969 53.207031"/><path d="M 223.082031 47.574219 C 222.90625 47.574219 222.738281 47.503906 222.617188 47.359375 L 220.933594 45.382812 C 220.714844 45.128906 220.742188 44.742188 221 44.523438 C 221.257812 44.304688 221.644531 44.335938 221.863281 44.589844 L 223.546875 46.566406 C 223.765625 46.824219 223.734375 47.207031 223.480469 47.429688 C 223.363281 47.523438 223.222656 47.574219 223.082031 47.574219"/><path d="M 228.402344 53.8125 C 228.226562 53.8125 228.058594 53.738281 227.9375 53.597656 L 226.253906 51.625 C 226.03125 51.367188 226.0625 50.980469 226.320312 50.761719 C 226.574219 50.542969 226.960938 50.574219 227.183594 50.828125 L 228.867188 52.804688 C 229.082031 53.0625 229.050781 53.449219 228.796875 53.667969 C 228.679688 53.765625 228.539062 53.8125 228.402344 53.8125"/><path d="M 63.972656 282.066406 C 63.644531 282.066406 63.375 281.808594 63.363281 281.480469 L 63.265625 278.886719 C 63.253906 278.546875 63.515625 278.261719 63.851562 278.25 C 64.199219 278.238281 64.472656 278.503906 64.488281 278.839844 L 64.585938 281.433594 C 64.597656 281.769531 64.335938 282.054688 63.996094 282.066406 C 63.988281 282.066406 63.980469 282.066406 63.972656 282.066406"/><path d="M 64.28125 290.261719 C 63.957031 290.261719 63.683594 290 63.671875 289.671875 L 63.574219 287.078125 C 63.5625 286.742188 63.824219 286.457031 64.160156 286.445312 C 64.507812 286.4375 64.78125 286.695312 64.796875 287.035156 L 64.894531 289.625 C 64.90625 289.964844 64.644531 290.246094 64.304688 290.261719 C 64.296875 290.261719 64.289062 290.261719 64.28125 290.261719"/><path d="M 58.6875 285.070312 C 58.359375 285.070312 58.089844 284.8125 58.074219 284.480469 C 58.0625 284.144531 58.328125 283.859375 58.664062 283.847656 L 61.257812 283.75 C 61.601562 283.738281 61.878906 284 61.890625 284.339844 C 61.902344 284.675781 61.640625 284.960938 61.300781 284.972656 L 58.710938 285.070312 C 58.703125 285.070312 58.695312 285.070312 58.6875 285.070312"/><path d="M 66.878906 284.761719 C 66.550781 284.761719 66.28125 284.503906 66.269531 284.175781 C 66.253906 283.835938 66.519531 283.550781 66.855469 283.539062 L 69.449219 283.441406 C 69.796875 283.433594 70.070312 283.691406 70.082031 284.027344 C 70.09375 284.367188 69.832031 284.652344 69.496094 284.664062 L 66.902344 284.761719 C 66.894531 284.761719 66.886719 284.761719 66.878906 284.761719"/><path d="M 50.488281 246.347656 C 50.253906 246.347656 50.035156 246.21875 49.933594 245.992188 C 39.121094 222.445312 35.503906 196.40625 39.480469 170.6875 C 40.480469 164.210938 41.964844 157.78125 43.886719 151.570312 C 43.988281 151.246094 44.332031 151.066406 44.652344 151.167969 C 44.976562 151.269531 45.15625 151.609375 45.054688 151.933594 C 43.148438 158.085938 41.679688 164.460938 40.6875 170.875 C 36.75 196.355469 40.332031 222.152344 51.042969 245.484375 C 51.183594 245.789062 51.046875 246.152344 50.742188 246.292969 C 50.660156 246.332031 50.574219 246.347656 50.488281 246.347656"/><path d="M 52.027344 249.585938 C 51.800781 249.585938 51.585938 249.460938 51.480469 249.242188 C 50.953125 248.175781 50.429688 247.078125 49.933594 245.992188 C 49.789062 245.683594 49.925781 245.324219 50.230469 245.183594 C 50.539062 245.039062 50.902344 245.175781 51.042969 245.484375 C 51.539062 246.558594 52.054688 247.644531 52.574219 248.703125 C 52.722656 249.007812 52.601562 249.375 52.296875 249.523438 C 52.210938 249.566406 52.117188 249.585938 52.027344 249.585938"/><path d="M 44.195312 262.171875 C 43.972656 262.171875 43.757812 262.054688 43.648438 261.839844 C 36.09375 247.078125 31.082031 231.21875 28.761719 214.714844 C 26.363281 197.636719 26.914062 180.300781 30.398438 163.183594 C 30.464844 162.851562 30.789062 162.636719 31.121094 162.707031 C 31.449219 162.773438 31.664062 163.097656 31.597656 163.429688 C 24.816406 196.722656 29.484375 231.476562 44.738281 261.285156 C 44.890625 261.582031 44.773438 261.953125 44.472656 262.105469 C 44.382812 262.152344 44.289062 262.171875 44.195312 262.171875"/><path d="M 31.550781 154.835938 L 34.972656 156.214844 L 35.070312 152.082031 Z M 35.5625 157.726562 C 35.484375 157.726562 35.40625 157.710938 35.332031 157.679688 L 30.113281 155.570312 C 29.910156 155.488281 29.765625 155.304688 29.738281 155.089844 C 29.707031 154.871094 29.792969 154.65625 29.964844 154.523438 L 35.339844 150.320312 C 35.523438 150.171875 35.777344 150.148438 35.988281 150.253906 C 36.199219 150.359375 36.332031 150.578125 36.324219 150.816406 L 36.171875 157.128906 C 36.167969 157.332031 36.066406 157.515625 35.898438 157.625 C 35.796875 157.691406 35.679688 157.726562 35.5625 157.726562"/><path d="M 214.660156 172.984375 C 214.476562 172.984375 214.289062 172.898438 214.171875 172.734375 C 213.96875 172.464844 214.027344 172.082031 214.296875 171.878906 L 232.113281 158.683594 C 232.382812 158.480469 232.765625 158.539062 232.964844 158.808594 C 233.167969 159.082031 233.109375 159.460938 232.839844 159.664062 L 215.027344 172.863281 C 214.914062 172.945312 214.789062 172.984375 214.660156 172.984375"/><path d="M 187.769531 149.75 C 187.582031 149.75 187.398438 149.664062 187.277344 149.503906 C 187.078125 149.230469 187.132812 148.847656 187.40625 148.648438 L 232.855469 114.972656 C 233.125 114.773438 233.507812 114.832031 233.710938 115.101562 C 233.910156 115.375 233.851562 115.753906 233.582031 115.957031 L 188.132812 149.632812 C 188.023438 149.710938 187.898438 149.75 187.769531 149.75"/><path d="M 219.910156 134.605469 C 219.722656 134.605469 219.539062 134.515625 219.417969 134.355469 C 219.214844 134.082031 219.273438 133.699219 219.542969 133.5 L 243.449219 115.789062 C 243.71875 115.589844 244.101562 115.644531 244.304688 115.917969 C 244.503906 116.1875 244.445312 116.570312 244.175781 116.773438 L 220.273438 134.484375 C 220.160156 134.5625 220.03125 134.605469 219.910156 134.605469"/><path d="M 77.886719 176.703125 C 77.476562 176.703125 77.0625 176.628906 76.664062 176.472656 C 75.804688 176.140625 75.125 175.484375 74.757812 174.625 C 74 172.875 74.785156 170.820312 76.503906 170.046875 C 76.8125 169.910156 77.175781 170.046875 77.3125 170.355469 C 77.453125 170.664062 77.3125 171.023438 77.007812 171.164062 C 75.890625 171.664062 75.386719 173 75.878906 174.140625 C 76.117188 174.695312 76.554688 175.117188 77.109375 175.335938 C 77.648438 175.546875 78.238281 175.527344 78.765625 175.292969 C 79.882812 174.789062 80.386719 173.457031 79.894531 172.316406 C 79.761719 172.003906 79.902344 171.644531 80.214844 171.511719 C 80.523438 171.378906 80.882812 171.523438 81.015625 171.832031 C 81.773438 173.582031 80.988281 175.632812 79.269531 176.40625 C 78.824219 176.605469 78.355469 176.703125 77.886719 176.703125"/><path fill="#F2FAFF" d="M 110.265625 40.457031 C 116.332031 38.875 122.535156 42.511719 124.117188 48.578125 C 125.703125 54.648438 122.066406 60.855469 116 62.4375 C 109.929688 64.023438 103.726562 60.382812 102.144531 54.316406 C 100.558594 48.246094 104.195312 42.042969 110.265625 40.457031 Z M 90.496094 55.078125 L 91.609375 59.34375 L 96.421875 59.183594 C 96.859375 60.128906 97.363281 61.023438 97.9375 61.859375 L 95.339844 65.914062 L 98.441406 69.050781 L 102.53125 66.503906 C 103.367188 67.09375 104.253906 67.613281 105.179688 68.054688 L 104.957031 72.871094 L 109.207031 74.042969 L 111.472656 69.792969 C 112.484375 69.886719 113.511719 69.890625 114.546875 69.808594 L 116.757812 74.089844 L 121.027344 72.976562 L 120.867188 68.160156 C 121.808594 67.722656 122.703125 67.21875 123.539062 66.644531 L 127.59375 69.242188 L 130.730469 66.140625 L 128.183594 62.050781 C 128.773438 61.214844 129.292969 60.324219 129.734375 59.402344 L 134.550781 59.625 L 135.71875 55.371094 L 131.472656 53.105469 C 131.566406 52.09375 131.570312 51.066406 131.488281 50.03125 L 135.769531 47.820312 L 134.65625 43.550781 L 129.839844 43.710938 C 129.40625 42.769531 128.898438 41.871094 128.324219 41.035156 L 130.921875 36.984375 L 127.824219 33.84375 L 123.730469 36.390625 C 122.894531 35.804688 122.007812 35.28125 121.085938 34.839844 L 121.308594 30.027344 L 117.054688 28.855469 L 114.789062 33.101562 C 113.777344 33.011719 112.75 33.003906 111.714844 33.085938 L 109.503906 28.804688 L 105.234375 29.921875 L 105.394531 34.738281 C 104.453125 35.171875 103.558594 35.679688 102.722656 36.25 L 98.671875 33.652344 L 95.53125 36.753906 L 98.078125 40.84375 C 97.488281 41.683594 96.96875 42.570312 96.527344 43.492188 L 91.714844 43.269531 L 90.542969 47.523438 L 94.789062 49.789062 C 94.699219 50.800781 94.691406 51.832031 94.773438 52.863281 L 90.496094 55.078125"/><path d="M 112.289062 42.148438 C 106.558594 43.644531 103.109375 49.527344 104.605469 55.261719 C 106.101562 60.996094 111.984375 64.441406 117.714844 62.945312 C 123.449219 61.449219 126.894531 55.566406 125.398438 49.832031 C 124.675781 47.054688 122.910156 44.726562 120.4375 43.277344 C 117.960938 41.824219 115.066406 41.425781 112.289062 42.148438 Z M 115.003906 64.515625 C 109.691406 64.515625 104.828125 60.945312 103.425781 55.570312 C 101.757812 49.183594 105.597656 42.632812 111.980469 40.964844 C 115.074219 40.15625 118.296875 40.605469 121.054688 42.21875 C 123.8125 43.835938 125.773438 46.429688 126.582031 49.523438 C 127.390625 52.621094 126.945312 55.839844 125.328125 58.597656 C 123.710938 61.355469 121.117188 63.320312 118.023438 64.128906 C 117.015625 64.394531 116.003906 64.515625 115.003906 64.515625 Z M 116.417969 70.296875 C 116.644531 70.296875 116.855469 70.425781 116.960938 70.628906 L 118.949219 74.472656 L 122.273438 73.605469 L 122.128906 69.277344 C 122.121094 69.03125 122.257812 68.804688 122.484375 68.703125 C 123.394531 68.28125 124.261719 67.789062 125.066406 67.238281 C 125.269531 67.101562 125.535156 67.097656 125.742188 67.226562 L 129.382812 69.5625 L 131.824219 67.148438 L 129.535156 63.472656 C 129.40625 63.265625 129.414062 63 129.554688 62.796875 C 130.125 61.988281 130.628906 61.128906 131.058594 60.234375 C 131.164062 60.015625 131.394531 59.878906 131.636719 59.890625 L 135.960938 60.09375 L 136.871094 56.78125 L 133.058594 54.746094 C 132.839844 54.628906 132.714844 54.394531 132.738281 54.148438 C 132.824219 53.179688 132.828125 52.179688 132.75 51.179688 C 132.730469 50.933594 132.859375 50.699219 133.078125 50.585938 L 136.925781 48.601562 L 136.058594 45.277344 L 131.730469 45.421875 C 131.488281 45.425781 131.257812 45.289062 131.15625 45.066406 C 130.734375 44.15625 130.242188 43.28125 129.691406 42.480469 C 129.554688 42.277344 129.550781 42.011719 129.683594 41.804688 L 132.015625 38.164062 L 129.601562 35.71875 L 125.925781 38.011719 C 125.71875 38.140625 125.453125 38.132812 125.253906 37.992188 C 124.445312 37.421875 123.582031 36.917969 122.691406 36.488281 C 122.46875 36.382812 122.332031 36.15625 122.34375 35.910156 L 122.546875 31.582031 L 119.234375 30.671875 L 117.199219 34.488281 C 117.085938 34.703125 116.851562 34.832031 116.605469 34.808594 C 115.636719 34.722656 114.636719 34.714844 113.636719 34.792969 C 113.386719 34.8125 113.15625 34.683594 113.042969 34.46875 L 111.054688 30.621094 L 107.734375 31.488281 L 107.878906 35.816406 C 107.886719 36.0625 107.746094 36.285156 107.523438 36.390625 C 106.613281 36.8125 105.742188 37.304688 104.9375 37.855469 C 104.738281 37.992188 104.46875 38 104.265625 37.863281 L 100.625 35.53125 L 98.179688 37.945312 L 100.46875 41.621094 C 100.597656 41.828125 100.59375 42.09375 100.449219 42.296875 C 99.882812 43.101562 99.378906 43.964844 98.949219 44.855469 C 98.84375 45.078125 98.613281 45.210938 98.371094 45.203125 L 94.046875 45.003906 L 93.132812 48.3125 L 96.949219 50.351562 C 97.164062 50.464844 97.292969 50.699219 97.269531 50.945312 C 97.183594 51.914062 97.175781 52.914062 97.253906 53.917969 C 97.273438 54.160156 97.144531 54.394531 96.925781 54.507812 L 93.082031 56.496094 L 93.949219 59.820312 L 98.277344 59.671875 C 98.519531 59.667969 98.746094 59.804688 98.851562 60.027344 C 99.269531 60.9375 99.765625 61.808594 100.316406 62.613281 C 100.453125 62.816406 100.457031 63.082031 100.324219 63.289062 L 97.992188 66.929688 L 100.402344 69.375 L 104.078125 67.082031 C 104.289062 66.953125 104.554688 66.960938 104.753906 67.105469 C 105.5625 67.671875 106.425781 68.175781 107.316406 68.605469 C 107.539062 68.710938 107.671875 68.9375 107.660156 69.183594 L 107.460938 73.511719 L 110.769531 74.421875 L 112.808594 70.605469 C 112.921875 70.386719 113.15625 70.261719 113.402344 70.285156 C 114.371094 70.375 115.371094 70.378906 116.371094 70.300781 C 116.386719 70.296875 116.402344 70.296875 116.417969 70.296875 Z M 118.632812 75.800781 C 118.40625 75.800781 118.195312 75.679688 118.089844 75.46875 L 116.058594 71.546875 C 115.265625 71.59375 114.476562 71.585938 113.695312 71.535156 L 111.621094 75.429688 C 111.484375 75.679688 111.191406 75.804688 110.917969 75.726562 L 106.664062 74.558594 C 106.390625 74.484375 106.203125 74.226562 106.21875 73.941406 L 106.421875 69.527344 C 105.71875 69.171875 105.039062 68.769531 104.386719 68.335938 L 100.636719 70.671875 C 100.394531 70.820312 100.078125 70.785156 99.878906 70.582031 L 96.777344 67.441406 C 96.578125 67.238281 96.546875 66.921875 96.699219 66.679688 L 99.078125 62.964844 C 98.652344 62.3125 98.265625 61.625 97.914062 60.90625 L 93.5 61.058594 C 93.207031 61.058594 92.960938 60.875 92.890625 60.601562 L 91.773438 56.332031 C 91.703125 56.054688 91.832031 55.765625 92.085938 55.632812 L 96.007812 53.601562 C 95.964844 52.808594 95.96875 52.019531 96.019531 51.238281 L 92.128906 49.164062 C 91.875 49.027344 91.75 48.738281 91.824219 48.460938 L 92.996094 44.207031 C 93.070312 43.929688 93.324219 43.746094 93.613281 43.757812 L 98.027344 43.964844 C 98.382812 43.261719 98.78125 42.578125 99.21875 41.929688 L 96.882812 38.175781 C 96.734375 37.933594 96.769531 37.617188 96.972656 37.417969 L 100.113281 34.320312 C 100.316406 34.117188 100.632812 34.082031 100.871094 34.238281 L 104.585938 36.617188 C 105.238281 36.195312 105.929688 35.804688 106.644531 35.457031 L 106.496094 31.042969 C 106.484375 30.753906 106.675781 30.5 106.953125 30.425781 L 111.21875 29.3125 C 111.496094 29.242188 111.785156 29.371094 111.917969 29.625 L 113.945312 33.550781 C 114.742188 33.503906 115.53125 33.507812 116.308594 33.558594 L 118.386719 29.667969 C 118.519531 29.414062 118.8125 29.289062 119.089844 29.367188 L 123.339844 30.535156 C 123.617188 30.609375 123.804688 30.867188 123.789062 31.152344 L 123.585938 35.570312 C 124.285156 35.921875 124.96875 36.324219 125.621094 36.761719 L 129.371094 34.421875 C 129.613281 34.269531 129.929688 34.308594 130.128906 34.511719 L 133.226562 37.652344 C 133.429688 37.855469 133.460938 38.171875 133.308594 38.414062 L 130.925781 42.128906 C 131.351562 42.78125 131.742188 43.46875 132.089844 44.183594 L 136.503906 44.039062 C 136.796875 44.027344 137.046875 44.21875 137.117188 44.496094 L 138.230469 48.761719 C 138.304688 49.039062 138.175781 49.328125 137.921875 49.460938 L 133.996094 51.492188 C 134.042969 52.285156 134.039062 53.074219 133.988281 53.855469 L 137.878906 55.929688 C 138.128906 56.066406 138.257812 56.359375 138.179688 56.632812 L 137.011719 60.886719 C 136.933594 61.160156 136.679688 61.34375 136.394531 61.335938 L 131.980469 61.128906 C 131.625 61.832031 131.222656 62.515625 130.785156 63.167969 L 133.121094 66.917969 C 133.273438 67.164062 133.234375 67.476562 133.03125 67.675781 L 129.894531 70.777344 C 129.691406 70.976562 129.375 71.011719 129.132812 70.855469 L 125.421875 68.472656 C 124.765625 68.902344 124.078125 69.292969 123.363281 69.636719 L 123.511719 74.054688 C 123.519531 74.339844 123.332031 74.59375 123.054688 74.667969 L 118.785156 75.78125 C 118.734375 75.792969 118.683594 75.800781 118.632812 75.800781"/><path fill="#CADDFF" d="M 51.929688 72.511719 C 62.316406 69.800781 72.929688 76.027344 75.640625 86.410156 C 78.351562 96.796875 72.128906 107.414062 61.746094 110.125 C 51.363281 112.835938 40.746094 106.613281 38.035156 96.226562 C 35.328125 85.839844 41.546875 75.222656 51.929688 72.511719 Z M 18.101562 97.53125 L 20.007812 104.835938 L 28.25 104.558594 C 28.992188 106.171875 29.859375 107.703125 30.839844 109.136719 L 26.394531 116.070312 L 31.699219 121.445312 L 38.699219 117.082031 C 40.132812 118.09375 41.648438 118.980469 43.230469 119.738281 L 42.847656 127.976562 L 50.125 129.980469 L 54 122.714844 C 55.730469 122.871094 57.492188 122.878906 59.261719 122.738281 L 63.046875 130.066406 L 70.351562 128.15625 L 70.074219 119.914062 C 71.6875 119.171875 73.21875 118.304688 74.652344 117.324219 L 81.582031 121.769531 L 86.953125 116.464844 L 82.59375 109.460938 C 83.605469 108.027344 84.492188 106.511719 85.25 104.929688 L 93.488281 105.316406 L 95.488281 98.035156 L 88.226562 94.15625 C 88.382812 92.425781 88.390625 90.667969 88.25 88.894531 L 95.574219 85.109375 L 93.667969 77.804688 L 85.429688 78.078125 C 84.683594 76.46875 83.820312 74.9375 82.835938 73.5 L 87.28125 66.566406 L 81.976562 61.195312 L 74.976562 65.558594 C 73.542969 64.546875 72.027344 63.65625 70.445312 62.898438 L 70.828125 54.660156 L 63.550781 52.660156 L 59.675781 59.925781 C 57.945312 59.769531 56.1875 59.761719 54.414062 59.898438 L 50.628906 52.574219 L 43.324219 54.480469 L 43.601562 62.722656 C 41.988281 63.46875 40.457031 64.332031 39.023438 65.316406 L 32.09375 60.871094 L 26.722656 66.175781 L 31.082031 73.175781 C 30.070312 74.609375 29.183594 76.125 28.425781 77.710938 L 20.1875 77.324219 L 18.1875 84.605469 L 25.453125 88.480469 C 25.292969 90.210938 25.285156 91.972656 25.425781 93.742188 L 18.101562 97.53125"/><path d="M 55.289062 74.984375 C 45.25 77.605469 39.210938 87.90625 41.832031 97.953125 C 43.101562 102.816406 46.1875 106.898438 50.527344 109.4375 C 54.863281 111.980469 59.929688 112.683594 64.792969 111.414062 C 69.65625 110.144531 73.738281 107.054688 76.277344 102.71875 C 78.820312 98.378906 79.519531 93.3125 78.253906 88.445312 C 76.984375 83.578125 73.894531 79.5 69.558594 76.960938 C 65.21875 74.414062 60.152344 73.714844 55.289062 74.984375 Z M 60.046875 113.246094 C 51.144531 113.25 43 107.265625 40.648438 98.261719 C 37.859375 87.566406 44.289062 76.59375 54.980469 73.800781 C 60.160156 72.449219 65.558594 73.195312 70.175781 75.902344 C 74.792969 78.609375 78.082031 82.957031 79.433594 88.136719 C 80.785156 93.316406 80.039062 98.714844 77.332031 103.332031 C 74.625 107.957031 70.28125 111.246094 65.101562 112.597656 C 63.414062 113.035156 61.714844 113.246094 60.046875 113.246094 Z M 62.464844 124.007812 C 62.691406 124.007812 62.902344 124.132812 63.007812 124.335938 L 66.570312 131.226562 L 72.925781 129.570312 L 72.667969 121.816406 C 72.660156 121.570312 72.800781 121.34375 73.023438 121.238281 C 74.601562 120.511719 76.113281 119.65625 77.507812 118.699219 C 77.710938 118.558594 77.976562 118.554688 78.183594 118.6875 L 84.707031 122.871094 L 89.382812 118.25 L 85.28125 111.667969 C 85.152344 111.457031 85.15625 111.191406 85.300781 110.988281 C 86.285156 109.585938 87.164062 108.089844 87.902344 106.546875 C 88.011719 106.324219 88.238281 106.191406 88.484375 106.199219 L 96.230469 106.558594 L 97.972656 100.222656 L 91.140625 96.574219 C 90.925781 96.460938 90.796875 96.226562 90.820312 95.980469 C 90.972656 94.296875 90.980469 92.5625 90.84375 90.824219 C 90.824219 90.578125 90.957031 90.347656 91.171875 90.230469 L 98.0625 86.671875 L 96.402344 80.3125 L 88.652344 80.570312 C 88.410156 80.578125 88.179688 80.4375 88.078125 80.214844 C 87.347656 78.632812 86.492188 77.121094 85.535156 75.726562 C 85.398438 75.523438 85.390625 75.257812 85.523438 75.050781 L 89.703125 68.527344 L 85.089844 63.851562 L 78.503906 67.953125 C 78.296875 68.082031 78.03125 68.078125 77.828125 67.933594 C 76.425781 66.945312 74.933594 66.070312 73.386719 65.328125 C 73.164062 65.222656 73.027344 64.996094 73.039062 64.75 L 73.398438 57 L 67.0625 55.257812 L 63.417969 62.09375 C 63.300781 62.308594 63.066406 62.433594 62.824219 62.414062 C 61.140625 62.261719 59.40625 62.253906 57.667969 62.390625 C 57.421875 62.40625 57.1875 62.277344 57.078125 62.058594 L 53.515625 55.167969 L 47.15625 56.828125 L 47.414062 64.582031 C 47.425781 64.828125 47.285156 65.054688 47.0625 65.15625 C 45.476562 65.886719 43.96875 66.742188 42.574219 67.699219 C 42.371094 67.839844 42.105469 67.839844 41.898438 67.710938 L 35.378906 63.527344 L 30.703125 68.144531 L 34.804688 74.730469 C 34.933594 74.941406 34.925781 75.207031 34.785156 75.40625 C 33.796875 76.808594 32.921875 78.304688 32.179688 79.851562 C 32.074219 80.074219 31.84375 80.210938 31.601562 80.199219 L 23.851562 79.835938 L 22.109375 86.175781 L 28.941406 89.824219 C 29.160156 89.9375 29.285156 90.171875 29.261719 90.417969 C 29.109375 92.101562 29.101562 93.839844 29.238281 95.574219 C 29.257812 95.820312 29.128906 96.050781 28.910156 96.164062 L 22.019531 99.726562 L 23.679688 106.085938 L 31.429688 105.828125 C 31.679688 105.820312 31.902344 105.960938 32.007812 106.183594 C 32.738281 107.765625 33.589844 109.273438 34.546875 110.667969 C 34.6875 110.871094 34.691406 111.140625 34.558594 111.34375 L 30.378906 117.867188 L 34.992188 122.546875 L 41.578125 118.445312 C 41.785156 118.3125 42.050781 118.320312 42.253906 118.460938 C 43.65625 119.449219 45.152344 120.324219 46.699219 121.066406 C 46.917969 121.171875 47.054688 121.402344 47.042969 121.648438 L 46.683594 129.398438 L 53.019531 131.140625 L 56.664062 124.304688 C 56.78125 124.085938 57.015625 123.960938 57.261719 123.984375 C 58.945312 124.136719 60.679688 124.144531 62.417969 124.007812 C 62.433594 124.007812 62.449219 124.007812 62.464844 124.007812 Z M 66.25 132.554688 C 66.027344 132.554688 65.816406 132.433594 65.707031 132.226562 L 62.105469 125.257812 C 60.578125 125.359375 59.050781 125.351562 57.554688 125.234375 L 53.867188 132.148438 C 53.734375 132.398438 53.441406 132.523438 53.167969 132.449219 L 45.890625 130.445312 C 45.613281 130.371094 45.425781 130.113281 45.441406 129.828125 L 45.804688 121.992188 C 44.449219 121.320312 43.132812 120.550781 41.882812 119.691406 L 35.226562 123.839844 C 34.984375 123.992188 34.667969 123.957031 34.46875 123.75 L 29.164062 118.378906 C 28.964844 118.175781 28.929688 117.859375 29.085938 117.621094 L 33.3125 111.023438 C 32.480469 109.777344 31.730469 108.449219 31.070312 107.0625 L 23.234375 107.324219 C 22.9375 107.335938 22.691406 107.144531 22.621094 106.867188 L 20.714844 99.5625 C 20.640625 99.289062 20.769531 98.996094 21.023438 98.867188 L 27.992188 95.261719 C 27.890625 93.734375 27.898438 92.203125 28.011719 90.710938 L 21.101562 87.023438 C 20.851562 86.890625 20.726562 86.597656 20.800781 86.320312 L 22.800781 79.042969 C 22.878906 78.765625 23.128906 78.578125 23.417969 78.59375 L 31.253906 78.957031 C 31.925781 77.601562 32.699219 76.285156 33.550781 75.035156 L 29.40625 68.378906 C 29.253906 68.132812 29.292969 67.820312 29.496094 67.617188 L 34.867188 62.3125 C 35.070312 62.113281 35.386719 62.082031 35.625 62.234375 L 42.21875 66.464844 C 43.464844 65.632812 44.796875 64.878906 46.179688 64.21875 L 45.917969 56.382812 C 45.910156 56.09375 46.097656 55.839844 46.375 55.769531 L 53.679688 53.863281 C 53.953125 53.789062 54.246094 53.917969 54.375 54.171875 L 57.976562 61.140625 C 59.507812 61.039062 61.035156 61.046875 62.527344 61.160156 L 66.214844 54.25 C 66.351562 53.996094 66.640625 53.871094 66.917969 53.949219 L 74.195312 55.949219 C 74.46875 56.027344 74.65625 56.28125 74.644531 56.566406 L 74.277344 64.40625 C 75.636719 65.078125 76.953125 65.847656 78.199219 66.703125 L 84.859375 62.554688 C 85.101562 62.40625 85.414062 62.441406 85.617188 62.644531 L 90.917969 68.019531 C 91.117188 68.222656 91.152344 68.539062 91 68.777344 L 86.769531 75.375 C 87.601562 76.621094 88.351562 77.949219 89.015625 79.335938 L 96.851562 79.070312 C 97.140625 79.058594 97.390625 79.253906 97.460938 79.527344 L 99.367188 86.832031 C 99.441406 87.109375 99.3125 87.402344 99.058594 87.53125 L 92.09375 91.132812 C 92.191406 92.664062 92.1875 94.191406 92.070312 95.683594 L 98.980469 99.375 C 99.234375 99.507812 99.359375 99.800781 99.28125 100.074219 L 97.28125 107.355469 C 97.207031 107.628906 96.949219 107.816406 96.664062 107.800781 L 88.828125 107.441406 C 88.15625 108.792969 87.386719 110.109375 86.53125 111.359375 L 90.675781 118.019531 C 90.828125 118.261719 90.789062 118.578125 90.589844 118.777344 L 85.214844 124.082031 C 85.011719 124.28125 84.695312 124.316406 84.457031 124.160156 L 77.863281 119.933594 C 76.617188 120.765625 75.285156 121.515625 73.902344 122.175781 L 74.164062 130.015625 C 74.175781 130.300781 73.984375 130.558594 73.707031 130.628906 L 66.40625 132.535156 C 66.351562 132.546875 66.300781 132.554688 66.25 132.554688"/><path fill="#43727A" d="M 336.832031 364 L 253.300781 364 C 248.289062 364 244.539062 359.394531 245.546875 354.484375 L 258.21875 292.867188 C 259.285156 287.683594 263.84375 283.964844 269.132812 283.964844 L 340.785156 283.964844 L 336.832031 364"/><path d="M 269.132812 284.574219 C 264.160156 284.574219 259.820312 288.113281 258.816406 292.988281 L 246.144531 354.609375 C 245.699219 356.769531 246.246094 358.988281 247.636719 360.699219 C 249.03125 362.410156 251.09375 363.390625 253.304688 363.390625 L 336.25 363.390625 L 340.144531 284.574219 Z M 336.832031 364.613281 L 253.304688 364.613281 C 250.726562 364.613281 248.316406 363.46875 246.691406 361.46875 C 245.066406 359.472656 244.429688 356.882812 244.949219 354.363281 L 257.621094 292.742188 C 258.742188 287.300781 263.582031 283.355469 269.132812 283.355469 L 340.785156 283.355469 C 340.949219 283.355469 341.109375 283.421875 341.226562 283.542969 C 341.34375 283.664062 341.402344 283.828125 341.394531 283.996094 L 337.445312 364.03125 C 337.425781 364.355469 337.160156 364.613281 336.832031 364.613281"/><path fill="#CADDFF" d="M 347.527344 364 L 331.316406 364 C 326.304688 364 322.550781 359.394531 323.5625 354.484375 L 337.519531 286.617188 C 337.835938 285.074219 339.195312 283.964844 340.773438 283.964844 L 344.9375 283.964844 C 346.667969 283.964844 348.105469 285.292969 348.246094 287.015625 L 353.957031 357.023438 C 354.261719 360.78125 351.296875 364 347.527344 364"/><path d="M 340.769531 284.574219 C 339.492188 284.574219 338.375 285.488281 338.117188 286.738281 L 324.160156 354.609375 C 323.71875 356.769531 324.261719 358.988281 325.652344 360.699219 C 327.046875 362.410156 329.113281 363.390625 331.320312 363.390625 L 347.527344 363.390625 C 349.179688 363.390625 350.707031 362.71875 351.820312 361.507812 C 352.9375 360.292969 353.484375 358.71875 353.347656 357.074219 L 347.640625 287.0625 C 347.523438 285.667969 346.339844 284.574219 344.941406 284.574219 Z M 347.527344 364.613281 L 331.320312 364.613281 C 328.742188 364.613281 326.332031 363.46875 324.707031 361.46875 C 323.082031 359.472656 322.445312 356.882812 322.964844 354.363281 L 336.921875 286.492188 C 337.296875 284.671875 338.914062 283.355469 340.769531 283.355469 L 344.941406 283.355469 C 346.972656 283.355469 348.691406 284.941406 348.859375 286.964844 L 354.566406 356.972656 C 354.726562 358.933594 354.054688 360.890625 352.722656 362.335938 C 351.386719 363.78125 349.496094 364.613281 347.527344 364.613281"/><path d="M 320.757812 316.921875 L 261.945312 316.921875 C 261.605469 316.921875 261.332031 316.648438 261.332031 316.3125 C 261.332031 315.972656 261.605469 315.699219 261.945312 315.699219 L 320.757812 315.699219 C 322.421875 315.699219 323.851562 314.570312 324.234375 312.949219 L 330 288.609375 C 330.078125 288.277344 330.40625 288.074219 330.734375 288.152344 C 331.0625 288.230469 331.265625 288.558594 331.1875 288.890625 L 325.421875 313.234375 C 324.910156 315.40625 322.988281 316.921875 320.757812 316.921875"/><path fill="#F2FAFF" d="M 300.207031 316.3125 L 298.375 323.703125 C 298.082031 324.953125 296.964844 325.835938 295.679688 325.835938 L 282.726562 325.835938 C 281.316406 325.835938 280.292969 324.492188 280.671875 323.132812 L 282.570312 316.3125 L 300.207031 316.3125"/><path d="M 283.035156 316.921875 L 281.261719 323.296875 C 281.132812 323.757812 281.226562 324.242188 281.515625 324.625 C 281.804688 325.007812 282.246094 325.226562 282.726562 325.226562 L 295.679688 325.226562 C 296.683594 325.226562 297.550781 324.539062 297.78125 323.5625 L 299.429688 316.921875 Z M 295.679688 326.449219 L 282.726562 326.449219 C 281.859375 326.449219 281.066406 326.050781 280.542969 325.363281 C 280.015625 324.675781 279.851562 323.800781 280.082031 322.96875 L 281.980469 316.148438 C 282.054688 315.882812 282.292969 315.699219 282.566406 315.699219 L 300.207031 315.699219 C 300.394531 315.699219 300.574219 315.785156 300.691406 315.933594 C 300.804688 316.082031 300.847656 316.273438 300.800781 316.457031 L 298.96875 323.847656 C 298.609375 325.375 297.257812 326.449219 295.679688 326.449219"/><path fill="#F2FAFF" d="M 327.691406 283.550781 L 329.191406 275.832031 C 329.890625 270.992188 327.332031 268.292969 323.652344 268.292969 L 289.863281 268.292969 C 286.183594 268.292969 282.695312 272.152344 282.078125 275.832031 L 280.574219 283.550781 L 286 283.550781 L 287.308594 276.984375 C 287.789062 274.117188 289.539062 272.667969 292.40625 272.667969 L 320.855469 272.667969 C 323.722656 272.667969 324.058594 274.117188 323.574219 276.984375 L 322.265625 283.550781 L 327.691406 283.550781"/><path d="M 323.007812 282.941406 L 327.1875 282.941406 L 328.59375 275.71875 C 328.90625 273.519531 328.519531 271.699219 327.460938 270.476562 C 326.566406 269.449219 325.253906 268.90625 323.648438 268.90625 L 289.863281 268.90625 C 286.429688 268.90625 283.238281 272.617188 282.679688 275.933594 L 281.3125 282.941406 L 285.496094 282.941406 L 286.707031 276.867188 C 287.238281 273.726562 289.207031 272.054688 292.40625 272.054688 L 320.855469 272.054688 C 322.246094 272.054688 323.15625 272.371094 323.730469 273.050781 C 324.558594 274.027344 324.433594 275.566406 324.179688 277.085938 Z M 327.6875 284.164062 L 322.265625 284.164062 C 322.082031 284.164062 321.910156 284.082031 321.792969 283.941406 C 321.675781 283.800781 321.628906 283.613281 321.664062 283.433594 L 322.976562 276.867188 C 323.25 275.222656 323.199219 274.3125 322.796875 273.839844 C 322.480469 273.460938 321.84375 273.277344 320.855469 273.277344 L 292.40625 273.277344 C 289.8125 273.277344 288.34375 274.523438 287.910156 277.085938 L 286.597656 283.671875 C 286.539062 283.957031 286.289062 284.164062 285.996094 284.164062 L 280.570312 284.164062 C 280.386719 284.164062 280.214844 284.082031 280.097656 283.941406 C 279.984375 283.800781 279.933594 283.617188 279.972656 283.4375 L 281.476562 275.71875 C 282.113281 271.925781 285.71875 267.683594 289.863281 267.683594 L 323.648438 267.683594 C 325.585938 267.683594 327.269531 268.390625 328.382812 269.675781 C 329.679688 271.175781 330.171875 273.332031 329.800781 275.917969 L 328.289062 283.667969 C 328.230469 283.957031 327.980469 284.164062 327.6875 284.164062"/><path fill="#CADDFF" d="M 321.40625 267.015625 L 292.835938 267.015625 C 291.683594 267.015625 290.59375 267.949219 290.398438 269.101562 L 289.980469 271.597656 C 289.785156 272.75 290.5625 273.679688 291.714844 273.679688 L 320.285156 273.679688 C 321.433594 273.679688 322.523438 272.75 322.71875 271.597656 L 323.140625 269.101562 C 323.332031 267.949219 322.558594 267.015625 321.40625 267.015625"/><path d="M 292.839844 267.628906 C 291.988281 267.628906 291.148438 268.347656 291.003906 269.203125 L 290.582031 271.699219 C 290.519531 272.078125 290.601562 272.429688 290.816406 272.6875 C 291.027344 272.933594 291.347656 273.070312 291.714844 273.070312 L 320.28125 273.070312 C 321.132812 273.070312 321.972656 272.347656 322.117188 271.492188 L 322.535156 269 C 322.601562 268.617188 322.515625 268.265625 322.300781 268.011719 C 322.089844 267.761719 321.773438 267.628906 321.40625 267.628906 Z M 320.28125 274.292969 L 291.714844 274.292969 C 290.980469 274.292969 290.332031 274.003906 289.886719 273.476562 C 289.433594 272.941406 289.253906 272.238281 289.378906 271.492188 L 289.796875 269 C 290.042969 267.542969 291.378906 266.402344 292.839844 266.402344 L 321.40625 266.402344 C 322.136719 266.402344 322.789062 266.695312 323.234375 267.222656 C 323.683594 267.753906 323.867188 268.460938 323.742188 269.203125 L 323.320312 271.699219 C 323.078125 273.152344 321.742188 274.292969 320.28125 274.292969"/><path fill="#5BD1D7" d="M 331.164062 354.875 C 330.949219 354.875 330.746094 354.765625 330.632812 354.566406 C 330.464844 354.273438 330.566406 353.898438 330.859375 353.734375 L 341.746094 347.527344 L 341.746094 293.003906 C 341.746094 292.667969 342.023438 292.394531 342.359375 292.394531 C 342.699219 292.394531 342.972656 292.667969 342.972656 293.003906 L 342.972656 347.882812 C 342.972656 348.101562 342.851562 348.304688 342.664062 348.414062 L 331.464844 354.792969 C 331.367188 354.851562 331.265625 354.875 331.164062 354.875"/></svg>